<svg xmlns="http://www.w3.org/2000/svg" viewBox="0 0 500 500"><g id="freepik--Floor--inject-1"><path id="freepik--floor--inject-1" d="M77.66,250.21c-95.18,55-95.17,144,0,199s249.49,55,344.67,0,95.17-144,0-199S172.84,195.26,77.66,250.21Z" style="fill:#fafafa"></path></g><g id="freepik--Shadows--inject-1"><path id="freepik--Shadow--inject-1" d="M45.51,385.36l154.15,89a14.55,14.55,0,0,0,13.17,0L445,340.32c3.64-2.1,3.64-5.51,0-7.61l-154.15-89a14.55,14.55,0,0,0-13.17,0l-232.17,134C41.87,379.85,41.87,383.26,45.51,385.36Z" style="fill:#e0e0e0"></path><path id="freepik--shadow--inject-1" d="M115.58,473.9l-8.41-4.9.41-3.09-2.84-1.6-6.67-.61L93.44,461l-.25-5.94-2.47-1.44-7.2,1.6-9.35-5.44a49.93,49.93,0,0,1-10,1h0c-8,0-15.59-1.84-21.32-5.18-6.21-3.61-9.62-8.58-9.6-14s3.46-10.35,9.7-13.92c5.66-3.24,13.12-5,21-5s15.6,1.84,21.34,5.18c5.43,3.16,8.79,7.49,9.46,12.18a13,13,0,0,1-1.84,8.57l50.23,29.24L132.43,474ZM51.91,427.27a2.47,2.47,0,0,0,.77.62,9.33,9.33,0,0,0,8.14,0,2.23,2.23,0,0,0,.77-.62,2.26,2.26,0,0,0-.76-.62,9.35,9.35,0,0,0-8.15,0A2.47,2.47,0,0,0,51.91,427.27Z" style="fill:#e0e0e0"></path><ellipse id="freepik--shadow--inject-1" cx="414.88" cy="297.47" rx="46.47" ry="26.83" style="fill:#e0e0e0"></ellipse></g><g id="freepik--Character--inject-1"><g id="freepik--character--inject-1"><g id="freepik--Bottom--inject-1"><path d="M443.72,286c-.73-9.82.4-17.35-.44-32.68h0c-.07-3.93-.22-8.14-.49-11.88-.92-12.58-2.92-16.88-3.11-19.31,0,0-.35-26.3-1.2-53.83-.4-12.95-4.28-16.88-7.38-23.75H394.28c-4.12,17-5.29,54-5.17,71.44.07,8.92,3.08,55.87,3.15,57,.26,3.89-.09,5.43-1.66,7.06-3.3,3.43-8.09,6.69-12.22,9.68.6,1.53,6.28,2.2,8.74,1A62.18,62.18,0,0,0,396.3,285c3.39-2.43,7.74-4.38,7.79-8.09a3,3,0,0,1,.12-.66c.06-2.16,5.27-34.06,5.7-41.46a169.53,169.53,0,0,0-.42-17.17l4.24-27s2.62,22.66,5.27,33.54c2.15,8.85,5.7,24,8.13,34.86h0c2.33,12.56,5.75,21.5,6.34,27.78.18,1.5,1.93,16.23,2.66,19.61s8.32,3.46,8.8-2.34C445.26,300.27,443.86,287.8,443.72,286Z" style="fill:#ffbda7"></path><path d="M413.73,190.68l-3.1-19.44s-12-1.38-16.35-5.44c0,0,5.49,7.51,13.63,8.74l3.42,16.12-1.81,26.75Z" style="fill:#f0997a"></path><path d="M372.05,294.29a3.11,3.11,0,0,0,.58,3.21c1.31,1.11,5.16,3,10.28,2.37s7.9-2.09,10-3.73,4.95-3.94,7.27-4.41a14.22,14.22,0,0,0,5.19-2c.7-.63.63-3.49.63-3.49Z" style="fill:#263238"></path><path d="M404.31,275.22s.39,0,.51.68.3,3.08.62,4.38a22.62,22.62,0,0,1,.43,7c-.3,1.46-3.82,2.44-6.06,3.24a28.56,28.56,0,0,0-7.3,4.36,21.65,21.65,0,0,1-10.83,3.78c-5.09,0-8.37-1.35-9.37-3.13-1.23-2.21-.94-4.19,4.94-6.76,1.11-.48,5-2.67,6.35-3.46a29.57,29.57,0,0,0,4-2.83,22.21,22.21,0,0,0,1.81-1.69,7.82,7.82,0,0,0,1.5-1.81c.06-.15.11-.32.17-.48a7.71,7.71,0,0,0,.4-1.32c.1-.47.16-1.16.63-1.43a4,4,0,0,1,2.09-.22,26,26,0,0,1,3.16.63,3,3,0,0,1,2.16,1.5,4,4,0,0,1,.45,2.05c0,.33,0,.67,0,1,0,.14-.06.39.14.34s.42-.55.5-.72c.16-.37.27-.76.45-1.12a5.54,5.54,0,0,1,1.68-2.1,11.27,11.27,0,0,0,1-.61A2.22,2.22,0,0,0,404.31,275.22Z" style="fill:#37474f"></path><path d="M376.3,289.15c7.36.56,10.34,5.72,10.62,8.45a18.27,18.27,0,0,1-5.24,1c-5.09,0-8.58-1.35-9.58-3.13C370.94,293.4,371.06,291,376.3,289.15Z" style="fill:#fafafa"></path><path d="M388,290.06a.37.37,0,0,0,.23-.07.34.34,0,0,0,.06-.49c-1-1.23-4.66-3.6-7.34-3.34a.34.34,0,0,0-.32.38.35.35,0,0,0,.39.31c2.5-.23,5.91,2.11,6.71,3.08A.34.34,0,0,0,388,290.06Z" style="fill:#f0f0f0"></path><path d="M391.24,288.31a.35.35,0,0,0,.22-.08.34.34,0,0,0,.06-.49c-1-1.23-4.66-3.6-7.34-3.34a.35.35,0,1,0,.07.69c2.5-.23,5.91,2.11,6.71,3.09A.37.37,0,0,0,391.24,288.31Z" style="fill:#f0f0f0"></path><path d="M394.2,286.29a.33.33,0,0,0,.23-.07.34.34,0,0,0,.05-.49c-1-1.23-4.67-3.6-7.34-3.34a.36.36,0,0,0-.32.38.35.35,0,0,0,.39.31c2.5-.23,5.91,2.11,6.71,3.08A.34.34,0,0,0,394.2,286.29Z" style="fill:#f0f0f0"></path><path d="M397.1,284.28a.35.35,0,0,0,.29-.56c-1.39-1.74-5.28-3.64-7.95-3.38a.36.36,0,0,0-.33.38.36.36,0,0,0,.4.31,10.43,10.43,0,0,1,7.31,3.12A.37.37,0,0,0,397.1,284.28Z" style="fill:#f0f0f0"></path><path d="M433.74,309.1c.2,3.36.74,5.59,2,7.56s3.56,2.59,5.92,2,5.37-2.13,6-5a17.77,17.77,0,0,0,.54-8Z" style="fill:#263238"></path><path d="M443.64,284.75c1,.07,1.26,4.59,1.82,9.11.6,4.84,2.09,6.85,2.63,10.82.61,4.54-.17,6.57-1.81,9.31s-7.46,5.44-10.33,1.51c-2.33-3.21-2.43-6.76-2.22-11.29a97.36,97.36,0,0,0-.31-11.49c-.19-3.4-1-6.82-.12-7.2.06.5.12,1.13.19,1.62a7.9,7.9,0,0,0,.32,1.81c.1.25.31.52.4.11a2.69,2.69,0,0,0,0-.85c-.14-1.25.51-1.35.86-1.45a41.83,41.83,0,0,1,4.5-.61c.74,0,3.3-.16,3.63.25a2.66,2.66,0,0,1,.33,1.31c.08.68.25,1.18.27,1,0-.49-.05-1.76-.07-2.07s-.06-.7-.06-1S443.66,285,443.64,284.75Z" style="fill:#37474f"></path><path d="M448.35,307.31a11,11,0,0,1-1.81,6.9c-1.64,2.74-7.93,5.44-10.79,1.51a12.58,12.58,0,0,1-2-6.62C435.46,306.07,445.64,304.73,448.35,307.31Z" style="fill:#fafafa"></path><path d="M435.86,304.16l.12,0a17,17,0,0,1,8.9-.84.36.36,0,0,0,.43-.26.36.36,0,0,0-.27-.42,17.42,17.42,0,0,0-9.37.89.34.34,0,0,0-.17.46A.36.36,0,0,0,435.86,304.16Z" style="fill:#f0f0f0"></path><path d="M444.66,299.91a.34.34,0,0,0,.3-.24.34.34,0,0,0-.22-.44c-4.35-1.42-9.18.72-9.36.81a.34.34,0,0,0-.15.47.37.37,0,0,0,.48.15s4.75-2.1,8.8-.77A.39.39,0,0,0,444.66,299.91Z" style="fill:#f0f0f0"></path><path d="M444.51,296.72a.36.36,0,0,0,.3-.23.35.35,0,0,0-.22-.45,13.16,13.16,0,0,0-9.54.78.35.35,0,0,0-.12.48.37.37,0,0,0,.5.12s4.46-2.26,8.92-.72A.41.41,0,0,0,444.51,296.72Z" style="fill:#f0f0f0"></path><path d="M444.27,293.58a.36.36,0,0,0,.3-.23.34.34,0,0,0-.21-.44c-4.48-1.63-9.42.77-9.6.87a.35.35,0,0,0-.13.48.35.35,0,0,0,.49.13s4.82-2.34,9-.83A.41.41,0,0,0,444.27,293.58Z" style="fill:#ebebeb"></path><path d="M433.67,144.5c4.36,7.7,6.71,14,7.16,36.9s-.32,36.14-.23,38.9,1.76,7.7,3.21,21.3-.26,29.81-.26,29.81-1,2.18-6.38,2.65c-5,.43-7.41-1.37-7.41-1.37S423,246.2,421.08,238s-7.35-41.85-7.35-41.85L410.49,218s1.51,7.51,0,19.43-4.18,24.15-4.18,24.15a22.82,22.82,0,0,1-7.61,1.2,17.24,17.24,0,0,1-7.43-1.84s-3.46-35.33-3.46-48.85,1-48,4.2-68Z" style="fill:#37474f"></path><path d="M394.77,164.27c2.11,5.58,9.77,9.49,13.14,10.27l3.95,21.33L410.49,218l3.24-21.85-4.43-26S400,169.52,394.77,164.27Zm32-2.73c.55,2.2,1,4.4,1.58,6.61s1.05,4.42,1.61,6.64a43.44,43.44,0,0,0-.46-6.84c-.31-2.27-.75-4.51-1.28-6.74a58.74,58.74,0,0,0-2-6.58,32.11,32.11,0,0,0-3-6.2c.71,2.18,1.34,4.35,1.93,6.54S426.19,159.34,426.72,161.54Zm4-4.22c.76,1.32,1.48,2.66,2.21,4l2.15,4.1a17.88,17.88,0,0,0-1.09-4.55,28.09,28.09,0,0,0-2-4.24,33.93,33.93,0,0,0-2.59-3.91,25,25,0,0,0-3.2-3.47c.7,1.41,1.46,2.75,2.22,4.08S430,156,430.69,157.32Zm-3.5,68.45c-1.35-7-2.32-20.8-3.26-27.89s-1.84-14.18-2.86-21.27c.45,7.14,1,14.28,1.71,21.4s1.62,21,3,28,2.85,14,4.37,21,3.09,14,4.78,21q-1.68-10.62-3.64-21.17C430,239.82,428.57,232.77,427.19,225.77Zm-33.62-30.51,1.2-18.65c-1,6.16-1.76,12.35-2.36,18.56s-1.12,12.41-1.14,18.71c.21,6.28.71,12.47,1.23,18.68s1.17,12.42,1.93,18.61q-.27-9.34-.77-18.68l-.48-9.33c-.17-3.1-.36-6.22-.43-9.3s.14-6.18.29-9.29S393.39,198.36,393.57,195.26Z" style="fill:#263238"></path></g><g id="freepik--Top--inject-1"><path id="freepik--Arm--inject-1" d="M402.5,101.09c-5.83.91-9,2.83-11.63,10.41-1.81,5.18-7.48,20.65-7.48,20.65l-22.83,18.29,8.92,7.44s17.21-9.49,21.79-12.92c2.07-1.55,3.28-3.37,5.34-8.05s5.71-12.33,7.39-17.31Z" style="fill:#ffbda7"></path><path id="freepik--Chest--inject-1" d="M438.58,155.7c-1.6-7.32-3.43-13.17-3.42-14.79.08-7,1.92-16.25,2.53-20.33,1.33-8.88-.74-16.07-2.81-17.82,0,0-2.91-.71-8.2-2.46-1.5-.49-.58-.21-2.93-.54a53.06,53.06,0,0,0-11.86-.33c-1,.1-5.52.89-5.52.89-1.38.32-3.87.77-3.87.77a28.85,28.85,0,0,0-6.14,7.86c-2.25,4-3.53,7.39-3.93,16-.51,11-2.37,24.19-2.37,31.85C399.15,162.4,426.85,162.54,438.58,155.7Z" style="fill:#455a64"></path><g id="freepik--Head--inject-1"><path id="freepik--Hair--inject-1" d="M426.41,65.91c.37-6.17-11.4-13.35-22.94-6.25s-7.72,14.48-7,16.71a23.18,23.18,0,0,1,1.21,5.76,8.22,8.22,0,0,1-1.24,5.11,3.58,3.58,0,0,1-4.34,1.26c.44,2.76,2.17,4.84,6.44,6.38a11.22,11.22,0,0,0,5.47.26c-.6.46-1.48,1.18-4.21,1.21,1.82,2.05,8.35,3.87,14-.17a1.55,1.55,0,0,1,.93-.18,3.39,3.39,0,0,1,1.1.36c2.74,1.18,6.17.73,9,0a12.54,12.54,0,0,0,4.4-1.91,6.66,6.66,0,0,0,2.64-3.91,6.17,6.17,0,0,1-.36,4.21,8,8,0,0,0,2.81-1.56,6.38,6.38,0,0,0,1.55-5.49,21.17,21.17,0,0,0-2-5.57,14.39,14.39,0,0,1-1.62-6.23,22.08,22.08,0,0,0-.24-4.45C431.44,68.45,429.66,66.1,426.41,65.91Z" style="fill:#263238"></path><path d="M423.29,97.05c0-1.46.19-8.76.19-8.76.06.55,2.71,2,5.07-.79s2.52-5.8,1.09-7.7c-1.57-2.11-5.06-2-6.44,1.46-1,1.24-2.81-.19-2-3.55-.22-2.35-3.61-4.89-1.8-8.87-6.71-4.43-14.34-4.11-18.42-.59a39.63,39.63,0,0,0-1.59,12.88c.29,7.75,2.37,11.48,4.85,12.78,1.66.87,3.17,1.07,6.07.82l-.13,2.44h0c-.06,1.21.05,2.12-1.13,2.52-.79.26-2.68.63-2.68.63s-2.75,4.76,4.84,5.18c12.11.68,15.47-5.2,15.47-5.2l-1.36-.54C423.41,99,423.31,98.5,423.29,97.05Z" style="fill:#ffbda7"></path><path d="M410.31,94.73c5.2-.53,10.17-2.25,11.34-4.62a4.69,4.69,0,0,1-2.09,3.83c-2.95,1.75-9.35,2.63-9.35,2.63Z" style="fill:#f0997a"></path><path d="M412.7,85.56,408.12,87a2.37,2.37,0,0,0,3,1.64A2.53,2.53,0,0,0,412.7,85.56Z" style="fill:#b16668"></path><path d="M412.41,86.62a2.64,2.64,0,0,0-2.64,2.07,2.32,2.32,0,0,0,1.33,0,2.46,2.46,0,0,0,1.66-2C412.64,86.65,412.53,86.62,412.41,86.62Z" style="fill:#f28f8f"></path><path d="M401.78,72.58l3.18-.8A1.57,1.57,0,0,0,403,70.56,1.72,1.72,0,0,0,401.78,72.58Z" style="fill:#263238"></path><path d="M415.73,73.1,412.6,72a1.59,1.59,0,0,1,2.07-1A1.74,1.74,0,0,1,415.73,73.1Z" style="fill:#263238"></path><path d="M405,77.21a1.4,1.4,0,0,1-1.26,1.49,1.32,1.32,0,0,1-1.47-1.2,1.41,1.41,0,0,1,1.26-1.5A1.32,1.32,0,0,1,405,77.21Z" style="fill:#263238"></path><path d="M414.88,77.43a1.41,1.41,0,0,1-1.26,1.49,1.32,1.32,0,0,1-1.47-1.2,1.41,1.41,0,0,1,1.26-1.5A1.32,1.32,0,0,1,414.88,77.43Z" style="fill:#263238"></path><path d="M419.23,74l8.24,4.48a3.43,3.43,0,0,0-2.56.56L419,75.85Z" style="fill:#455a64"></path><path d="M397.69,76c.59,1,.51,2.8,1.08,3.92.65,2.28,4.79,3.53,6.93,1.23a4.7,4.7,0,0,0,.81-1.33c.53-1.21.38-2.92,1.26-3.12,2.44-.33.38,6.15,7,5.73,3.23-.16,3.83-3.25,4.13-5.72.13-.71.71-.85.77-1.74s-.68-1.15-1.38-1.16a21,21,0,0,0-6.55.06c-2,.58-2.7,1.23-3.83,1.22s-1.74-.68-3.66-1.28a18,18,0,0,0-6.55-.18C396.71,73.85,397.17,75.52,397.69,76Zm12.7-.14c1.38-1.62,6.15-1.73,7.16-.68.56.63.2,2.83-.07,3.87,0,.12-.08.25-.13.38a3.16,3.16,0,0,1-3.22,2.09,3.63,3.63,0,0,1-2.76-1.07,4,4,0,0,1-1-1.83A4.11,4.11,0,0,1,410.39,75.82Zm-8.8-1.5c3.69.35,5.14,1.2,4.08,4.91C405.31,81,402.79,82,401,81a4.14,4.14,0,0,1-1.92-2.94C398.39,75.12,398.55,74.34,401.59,74.32Z" style="fill:#455a64"></path><path d="M404,82.34l4.33,2,.69-6.67a1.78,1.78,0,0,0-.51-.84Z" style="fill:#f0997a"></path></g><g id="freepik--Laptop--inject-1"><path d="M414.57,162.68v.81a2.27,2.27,0,0,1-1.13,2L391.71,178a2.35,2.35,0,0,1-1.15.3,2.28,2.28,0,0,1-1.13-.3l-39.88-23a2.28,2.28,0,0,1-1.14-2v-.55l42.15,24.32Z" style="fill:#263238"></path><path d="M348.41,152.45,372,138.79a1.37,1.37,0,0,1,1.36,0l41,23.67a.3.3,0,0,1,0,.52l-23.86,13.79Z" style="fill:#37474f"></path><polygon points="390.78 174.76 403.53 167.4 366.24 145.89 353.42 153.21 390.78 174.76" style="fill:#263238"></polygon><polygon points="397.04 154.3 396.81 154.44 390.56 158.05 379.44 151.63 379.21 151.5 385.69 147.76 397.04 154.3"></polygon><polygon points="396.81 154.44 390.56 158.05 379.44 151.63 385.69 148.02 396.81 154.44" style="fill:#263238"></polygon><path d="M390.56,176.77v1.51a2.28,2.28,0,0,1-1.13-.3l-39.88-23a2.28,2.28,0,0,1-1.14-2v-.55Z"></path><path d="M389.92,177.1a2.67,2.67,0,0,1-2.32-.18L347.89,154a2.66,2.66,0,0,1-1.31-1.89l-4.36-25.91a3.25,3.25,0,0,1,0-.44,2.66,2.66,0,0,1,.8-1.92l41.25,23.8a2,2,0,0,1,1,1.4Z" style="fill:#37474f"></path><path d="M390.56,176.77l-.27.15a2.53,2.53,0,0,1-.37.18l-4.71-28a2,2,0,0,0-1-1.4L343,123.86a2.35,2.35,0,0,1,.55-.42l41.34,23.85a2,2,0,0,1,1,1.39Z" style="fill:#455a64"></path><path d="M367.56,153.19a8.77,8.77,0,0,0-4-5.15c-1.92-1.1-3.23-.6-2.94,1.14a8.79,8.79,0,0,0,4,5.15C366.53,155.43,367.85,154.92,367.56,153.19Z" style="fill:#6C63FF"></path></g><g id="freepik--arm--inject-1"><path d="M452.34,139.49a198.66,198.66,0,0,0-4.9-26.27c-1.53-6.59-3.68-8.08-12.56-10.46-2.34,3.73-1.88,18.88-.42,23.77l2.67,12.84a116,116,0,0,1-11.6,6.07c-5,2.18-8.06,3.2-13.23,2.67s-7.17-1.14-10.05-.58c-1.53.3-5,1-6.25,1.31s-3.59,1.85-5.69,2.77-.05,2.2,1.36,2.11a17.27,17.27,0,0,0,4.38-1.05,24.51,24.51,0,0,1,3.69-.54,20.4,20.4,0,0,0-1.6,3.8c-.17.73-.52,1.57,0,2.24a5.51,5.51,0,0,0,1.38,1,1.12,1.12,0,0,0,.14.77,1.88,1.88,0,0,0,1.22.62,5.93,5.93,0,0,0,.76,0,1.38,1.38,0,0,0,.58,1.23,6,6,0,0,0,3.07.79c.16,0,1.45-.39,1.82-.5a3,3,0,0,0,1.3-.46c.33-.32-.18-1.35-.75-1.57a6,6,0,0,0-2-.31,7.09,7.09,0,0,0,1-1.57c.72-.74,4.4,1,8,1.16,2.69.13,5.12-1.92,6.4-2.18,8.21-1.71,14.43-2.8,23-5.67C451.76,148.87,453.21,147,452.34,139.49Z" style="fill:#ffbda7"></path><path d="M399,152.21c.61-.89,1.48-1.92,2.29-2a8.85,8.85,0,0,0-1.57,1.94Z" style="fill:#f28f8f"></path><path d="M399.51,159.13a8.33,8.33,0,0,1,.4-2.15,20.9,20.9,0,0,1,.75-2,9.64,9.64,0,0,1,1-2,4,4,0,0,1,1.66-1.42,3,3,0,0,0-.78.73,6.48,6.48,0,0,0-.61.87,14.25,14.25,0,0,0-.92,1.93c-.29.66-.56,1.33-.83,2A18.22,18.22,0,0,0,399.51,159.13Z" style="fill:#f28f8f"></path><path d="M401.63,160.57a10,10,0,0,1,.46-2.1,18,18,0,0,1,.78-2,13.89,13.89,0,0,1,1-1.9,4.16,4.16,0,0,1,1.47-1.56,2.58,2.58,0,0,0-.67.8c-.19.3-.36.61-.52.92-.32.63-.63,1.26-.92,1.91C402.66,157.93,402.1,159.22,401.63,160.57Z" style="fill:#f28f8f"></path><path d="M407.65,160.06a3.52,3.52,0,0,0-.9-.07c-.29,0-.52.1-.89.13l.19-.19a1,1,0,0,1-.15.4,1,1,0,0,1-.27.28,1.23,1.23,0,0,1-.68.25,3,3,0,0,0,.48-.46c.06-.08.1-.17.15-.25a.93.93,0,0,0,.06-.24v-.16l.18,0a2.49,2.49,0,0,1,.86,0A1.7,1.7,0,0,1,407.65,160.06Z" style="fill:#f28f8f"></path></g></g></g></g><g id="freepik--speech-bubble--inject-1"><g id="freepik--speech-bubble--inject-1"><g id="freepik--speech-bubble--inject-1"><path d="M347.09,58.09l27.34,15.82c.54.31,1,1.07,1,2.53v33.23c0,.46-.19.57-.52.76l-2.43,1.39a2.16,2.16,0,0,1-1.95,0L343.16,96a2.16,2.16,0,0,1-1-1.69V60.89a2.13,2.13,0,0,1,1-1.68l2-1.13A2.21,2.21,0,0,1,347.09,58.09Z" style="fill:#6C63FF"></path><path d="M347.09,58.09l27.34,15.82c.54.31,1,1.07,1,2.53v33.23c0,.46-.19.57-.52.76l-2.43,1.39a2.16,2.16,0,0,1-1.95,0L343.16,96a2.16,2.16,0,0,1-1-1.69V60.89a2.13,2.13,0,0,1,1-1.68l2-1.13A2.21,2.21,0,0,1,347.09,58.09Z" style="opacity:0.2"></path><path d="M342.2,60.71c.08-.49.48-.67,1-.39L370.5,76.14a2,2,0,0,1,.69.73l3.91-2.27a1.93,1.93,0,0,0-.67-.69L347.09,58.09a2.18,2.18,0,0,0-2,0l-2,1.13A2.16,2.16,0,0,0,342.2,60.71Z" style="fill:#6C63FF"></path><path d="M342.2,60.71c.08-.49.48-.67,1-.39L370.5,76.14a2,2,0,0,1,.69.73l3.91-2.27a1.93,1.93,0,0,0-.67-.69L347.09,58.09a2.18,2.18,0,0,0-2,0l-2,1.13A2.16,2.16,0,0,0,342.2,60.71Z" style="fill:#fff;opacity:0.30000000000000004"></path><path d="M380,99.3c.62-.37,3.37-1.92,3.52-2a.92.92,0,0,0,.19-1.4l-8.3-9.52-3.93,2.27,8.69,9.28A.93.93,0,0,1,380,99.3Z" style="fill:#6C63FF"></path><path d="M380,99.3c.62-.37,3.37-1.92,3.52-2a.92.92,0,0,0,.19-1.4l-8.3-9.52-3.93,2.27,8.69,9.28A.93.93,0,0,1,380,99.3Z" style="fill:#fff;opacity:0.30000000000000004"></path><path d="M343.16,60.32l27.35,15.82a2.18,2.18,0,0,1,1,1.69V88.65l8.69,9.28a.88.88,0,0,1-.56,1.5l-8.13-.6h0v12.42c0,.62-.44.87-1,.56L343.16,96a2.16,2.16,0,0,1-1-1.69V60.89C342.19,60.27,342.62,60,343.16,60.32Z" style="fill:#6C63FF"></path></g><g id="freepik--Check--inject-1"><path d="M353.69,95.55l-.28,0a2.11,2.11,0,0,1-1.62-1.19l-3.37-7.1a2.1,2.1,0,0,1,3.8-1.78l2,4.17,9.63-11.22A2.1,2.1,0,0,1,367,81.15L355.28,94.82A2.11,2.11,0,0,1,353.69,95.55Z" style="fill:#fafafa"></path></g></g></g><g id="freepik--Plants--inject-1"><g id="freepik--plants--inject-1"><path d="M443.41,331.71l-8.61-5s-5.13-21.31-3.09-40.48c2.87-26.95,20.62-37.09,27.36-34.77s8.7,10.17-2.46,26.22C450,287.18,441.93,306.91,443.41,331.71Z" style="fill:#6C63FF"></path><g style="opacity:0.65"><path d="M443.41,331.71l-8.61-5s-5.13-21.31-3.09-40.48c2.87-26.95,20.62-37.09,27.36-34.77s8.7,10.17-2.46,26.22C450,287.18,441.93,306.91,443.41,331.71Z" style="fill:#fff"></path></g><path d="M439.84,321.25h.08a.6.6,0,0,0,.48-.7c-4.72-24.86,4-52.79,14.71-64.42a.59.59,0,0,0,0-.84.6.6,0,0,0-.84,0c-10.95,11.84-19.81,40.23-15,65.45A.59.59,0,0,0,439.84,321.25Z" style="fill:#fff"></path><path d="M465.09,344.23c1.29.66,4.71-2.27,5.66-3a11.75,11.75,0,0,0,3.74-4.75,11.14,11.14,0,0,0,.66-6.77,25.88,25.88,0,0,0-1-3.53L473,322.77a8.7,8.7,0,0,1-.69-3.47c.19-2.38,2.21-4.15,4.05-5.68,2-1.69,4.13-3.9,4-6.75a10.08,10.08,0,0,0-2.82-5.85c-1.45-1.66-3.15-3.11-4.47-4.87a7,7,0,0,1-1.66-4.36,7.39,7.39,0,0,1,.82-2.82c.92-1.91,2.16-3.68,2.75-5.71s.38-4.52-1.26-5.87c-1.33-1.1-3.24-1.17-5-1a11.38,11.38,0,0,0-4.49,1.84c-4.4,2.75-6.72,8.25-11.43,10.43A47,47,0,0,1,447,290.4c-1.91.61-3.83,1.7-4.64,3.53-1.58,3.62,1.91,7.8.86,11.6-.93,3.37-4.09,4.8-5.74,7.88a7.09,7.09,0,0,0-.63,4.38,20.91,20.91,0,0,0,2.2,7.23,64.77,64.77,0,0,0,4.35,6.69S464.89,344.13,465.09,344.23Z" style="fill:#6C63FF"></path><g style="opacity:0.30000000000000004"><path d="M465.09,344.23c1.29.66,4.71-2.27,5.66-3a11.75,11.75,0,0,0,3.74-4.75,11.14,11.14,0,0,0,.66-6.77,25.88,25.88,0,0,0-1-3.53L473,322.77a8.7,8.7,0,0,1-.69-3.47c.19-2.38,2.21-4.15,4.05-5.68,2-1.69,4.13-3.9,4-6.75a10.08,10.08,0,0,0-2.82-5.85c-1.45-1.66-3.15-3.11-4.47-4.87a7,7,0,0,1-1.66-4.36,7.39,7.39,0,0,1,.82-2.82c.92-1.91,2.16-3.68,2.75-5.71s.38-4.52-1.26-5.87c-1.33-1.1-3.24-1.17-5-1a11.38,11.38,0,0,0-4.49,1.84c-4.4,2.75-6.72,8.25-11.43,10.43A47,47,0,0,1,447,290.4c-1.91.61-3.83,1.7-4.64,3.53-1.58,3.62,1.91,7.8.86,11.6-.93,3.37-4.09,4.8-5.74,7.88a7.09,7.09,0,0,0-.63,4.38,20.91,20.91,0,0,0,2.2,7.23,64.77,64.77,0,0,0,4.35,6.69S464.89,344.13,465.09,344.23Z" style="fill:#fff"></path></g><path d="M452.62,337.73h0a.57.57,0,0,0,.52-.61c-2.07-22.36,7.24-47.63,14.56-55.21a.56.56,0,0,0,0-.79.57.57,0,0,0-.8,0c-7.46,7.73-17,33.42-14.87,56.09A.56.56,0,0,0,452.62,337.73Z" style="fill:#fff"></path><path d="M454.84,310.16a.51.51,0,0,0,.17,0,75.79,75.79,0,0,1,16.13-3.44.57.57,0,0,0,.51-.62.55.55,0,0,0-.62-.51,77.43,77.43,0,0,0-16.41,3.51.57.57,0,0,0-.34.72A.56.56,0,0,0,454.84,310.16Z" style="fill:#fff"></path></g></g><g id="freepik--Device--inject-1"><g id="freepik--laptop--inject-1"><path d="M50.22,374c0,3.68,2.75,8.24,6.14,10.2l143.69,83a13.56,13.56,0,0,0,12.28,0L436.48,337.71c3.39-2,6.14-6.52,6.14-10.19s-2.75-8.24-6.14-10.2l-143.69-83a13.56,13.56,0,0,0-12.28,0L56.36,363.77C53,365.73,50.22,370.29,50.22,374Z" style="fill:#37474f"></path><path d="M54.74,371.39l143.69,83a13.56,13.56,0,0,0,12.28,0L434.86,325c3.39-2,3.39-5.13,0-7.09l-143.7-83a13.54,13.54,0,0,0-12.27,0L54.74,364.31C51.35,366.26,51.35,369.44,54.74,371.39Z" style="fill:#455a64"></path><path d="M206.2,455.3v13.29a12.58,12.58,0,0,1-6.14-1.46l-143.7-83c-3.39-2-6.14-6.52-6.14-10.19,0-3.45,2.43-7.67,5.52-9.8-2.75,2-2.54,4.86.62,6.69l143.7,83A12.48,12.48,0,0,0,206.2,455.3Z" style="fill:#263238"></path><path d="M282.94,39.87c-2.87-2.29-7.81-2.27-11.2-.32L47.6,169a13.58,13.58,0,0,0-6.14,10.64V355.14h0v0c0,3.91,2.44,8.22,5.87,9.54,3.62,1.39,5.67,1,9.06-.94h0L280.51,234.36a13.58,13.58,0,0,0,6.14-10.63V48.18C286.65,44.27,285.94,42.26,282.94,39.87Z" style="fill:#37474f"></path><path d="M286.65,48.18c0-3.91-2.75-5.49-6.14-3.54L56.36,174.05A12.49,12.49,0,0,0,52,178.64l-8.76-5.09h0A12.51,12.51,0,0,1,47.6,169L271.74,39.55c3.39-2,8.34-2,11.19.31C286,42.3,286.65,44.27,286.65,48.18Z" style="fill:#455a64"></path><path d="M50.25,360.21l0-175.53a12.53,12.53,0,0,1,1.8-6h0l-8.76-5.08a12.43,12.43,0,0,0-1.8,6V355.16c0,3.91,2.44,8.22,5.87,9.54,3.62,1.39,5.67,1,9.06-.94C53,365.71,50.25,364.12,50.25,360.21Z" style="fill:#263238"></path><path d="M59.66,181.13,275.37,56.63c2-1.18,3.68-.22,3.68,2.13V222a8.13,8.13,0,0,1-3.68,6.38L59.66,352.89c-2,1.17-3.68.22-3.68-2.13V187.51A8.16,8.16,0,0,1,59.66,181.13Z"></path><path d="M59.66,181.13A8.16,8.16,0,0,0,56,187.51V347.92L269.22,224.84a8.14,8.14,0,0,0,3.69-6.38V58.05Z" style="fill:#fff"></path><path d="M75.32,364.81l206-118.92a6.42,6.42,0,0,1,5.79,0l7.51,4.21c1.59.92,1.59,2.42,0,3.34l-206,118.9a6.36,6.36,0,0,1-5.79,0l-7.47-4.19C73.72,367.23,73.72,365.74,75.32,364.81Z" style="fill:#263238"></path><path d="M95.55,376.74l206-118.92a5.93,5.93,0,0,1,5.29-.29l53.61,31c1.33.76,1.1,2.13-.5,3.05L154.19,410.3a5.9,5.9,0,0,1-5.29.3L95.06,379.79C93.73,379,94,377.67,95.55,376.74Z" style="fill:#263238"></path><path d="M274,307.77l6.44-3.72c.28-.16.3-.4.06-.54l-6.17-3.57a1,1,0,0,0-.94,0L267,303.7c-.27.16-.29.4-.05.54l6.17,3.56A1,1,0,0,0,274,307.77Zm-9.42-12.88-6.45,3.72c-.27.16-.3.4-.06.54l6.17,3.56a1,1,0,0,0,.94,0l6.45-3.72c.27-.16.3-.4.06-.54l-6.17-3.57A1,1,0,0,0,264.62,294.89Zm-20.84,12-10.91,6.3c-.28.16-.3.4-.06.54l6.17,3.56a1,1,0,0,0,.94,0l10.91-6.3c.28-.16.3-.4.06-.54l-6.17-3.57A1,1,0,0,0,243.78,306.92Zm11.41-6.59-6.45,3.72c-.27.16-.3.4-.05.54l6.17,3.56a1,1,0,0,0,.94,0l6.44-3.72c.28-.16.3-.4.06-.54l-6.17-3.56A1,1,0,0,0,255.19,300.33Zm-25.3,14.61-6.45,3.72c-.27.16-.3.4-.05.54l6.17,3.56a1,1,0,0,0,.93,0l6.45-3.72c.28-.16.3-.4.06-.54l-6.17-3.57A1,1,0,0,0,229.89,314.94Zm-9.42,5.44L214,324.1c-.28.16-.3.4-.06.54l6.17,3.56a1,1,0,0,0,.94,0l6.45-3.72c.27-.16.3-.4,0-.54l-6.17-3.56A1,1,0,0,0,220.47,320.38Zm24.18,14.53,6.45-3.72c.27-.16.3-.4.05-.54L245,327.09a1,1,0,0,0-.94,0l-6.45,3.72c-.28.16-.3.4-.06.54l6.17,3.57A1,1,0,0,0,244.65,334.91Zm-9.43,5.45,6.45-3.73c.28-.16.3-.4.06-.54l-6.17-3.56a1,1,0,0,0-.94,0l-6.45,3.72c-.27.16-.3.41,0,.55l6.17,3.56A1.05,1.05,0,0,0,235.22,340.36Zm-9.42,5.44,6.45-3.73c.27-.15.3-.4.05-.54L226.13,338a1.05,1.05,0,0,0-.93,0l-6.45,3.73c-.28.16-.3.4-.06.54l6.17,3.56A1,1,0,0,0,225.8,345.8Zm-9.43,5.44,6.45-3.72c.28-.16.3-.4.06-.54l-6.17-3.57a1,1,0,0,0-.94,0l-6.45,3.72c-.27.16-.3.4,0,.54l6.17,3.56A1,1,0,0,0,216.37,351.24Zm48.24-38,6.45-3.72c.27-.16.3-.4.05-.54l-6.17-3.56a1,1,0,0,0-.93,0l-6.45,3.72c-.28.16-.3.4-.06.54l6.17,3.56A1,1,0,0,0,264.61,313.21Zm-10.53,16.26,14.38-8.3c.28-.16.3-.41.06-.55l-15-8.65a1,1,0,0,0-.93,0l-7.44,4.29c-.28.16-.3.4-.06.54l7.93,4.58c.25.14.22.39-.05.54l-6,3.44c-.27.16-.29.4-.05.54l6.17,3.56A1,1,0,0,0,254.08,329.47Zm-43-3.65-6.45,3.72c-.27.16-.3.4-.05.54l6.17,3.57a1,1,0,0,0,.93,0l6.45-3.72c.28-.16.3-.4.06-.54L212,325.79A1,1,0,0,0,211,325.82Zm-9.43,5.44L195.16,335c-.27.15-.29.4,0,.54l6.17,3.56a1,1,0,0,0,.94,0l6.45-3.73c.27-.15.29-.4.05-.54l-6.17-3.56A1,1,0,0,0,201.61,331.26Zm-52.16,58.11a1,1,0,0,0,.94,0l6.45-3.72c.27-.16.3-.4.06-.54l-6.17-3.56a1,1,0,0,0-.94,0l-6.45,3.72c-.27.16-.3.4-.06.54ZM126.21,374.8l-6.45,3.72c-.28.16-.3.4-.06.54l6.17,3.56a1,1,0,0,0,.94,0l6.45-3.72c.27-.16.3-.4.05-.54l-6.17-3.56A1,1,0,0,0,126.21,374.8Zm12,10.91a1,1,0,0,0,.94,0l6.45-3.73c.27-.15.29-.4,0-.54l-6.17-3.56a1,1,0,0,0-.94,0L132,381.61c-.27.16-.29.4,0,.54Zm26,5.85,6.45-3.72c.27-.16.29-.4,0-.55l-6.17-3.56a1.07,1.07,0,0,0-.94,0l-6.45,3.73c-.27.16-.29.4-.05.54l6.17,3.56A1,1,0,0,0,164.17,391.56ZM153.8,397a1,1,0,0,0,.94,0l6.45-3.72c.27-.16.3-.4.06-.54l-6.18-3.57a1,1,0,0,0-.93,0l-6.45,3.72c-.28.16-.3.4-.06.54Zm-18.17-27.67-6.45,3.72c-.27.16-.3.4-.05.54l6.17,3.56a1,1,0,0,0,.93,0l6.45-3.72c.28-.16.3-.4.06-.54l-6.17-3.57A1,1,0,0,0,135.63,369.36Zm47.13-27.21-6.45,3.72c-.27.16-.3.4-.05.54l6.17,3.56a1,1,0,0,0,.93,0l6.45-3.72c.28-.16.3-.4.06-.54l-6.17-3.57A1,1,0,0,0,182.76,342.15Zm-37.7,21.76-6.45,3.73c-.27.16-.3.4-.06.54l6.17,3.56a1,1,0,0,0,.94,0l6.45-3.72c.27-.16.3-.4.06-.55L146,363.88A1.07,1.07,0,0,0,145.06,363.91Zm47.13-27.21-6.45,3.73c-.28.16-.3.4-.06.54l6.17,3.56a1,1,0,0,0,.94,0l6.45-3.72c.27-.16.3-.4.06-.55l-6.17-3.56A1.07,1.07,0,0,0,192.19,336.7Zm-18.85,10.89-6.45,3.72c-.28.16-.3.4-.06.54l6.17,3.56a1,1,0,0,0,.94,0l6.45-3.72c.27-.16.3-.4.05-.54l-6.17-3.56A1,1,0,0,0,173.34,347.59ZM163.91,353l-6.45,3.72c-.27.16-.3.4-.05.54l6.17,3.57a1.05,1.05,0,0,0,.93,0L171,357.1c.28-.16.3-.4.06-.54L164.85,353A1,1,0,0,0,163.91,353Zm-9.43,5.44L148,362.2c-.28.15-.3.4-.06.54l6.17,3.56a1,1,0,0,0,.94,0l6.45-3.73c.27-.15.29-.4.05-.54l-6.17-3.56A1,1,0,0,0,154.48,358.47Zm43,3.65L204,358.4c.27-.16.3-.4.06-.54l-6.17-3.56a1,1,0,0,0-.94,0l-6.45,3.72c-.28.16-.3.4-.06.54l6.17,3.57A1,1,0,0,0,197.52,362.12Zm87.94-79.26L279,286.58c-.28.16-.3.4-.06.54l6.17,3.56a1,1,0,0,0,.94,0l6.45-3.72c.27-.16.3-.4.05-.54l-6.17-3.57A1,1,0,0,0,285.46,282.86Zm-11.41,6.58-6.45,3.73c-.28.16-.3.4-.06.54l6.17,3.56a1,1,0,0,0,.94,0l6.45-3.72c.27-.16.3-.4,0-.55L275,289.41A1.05,1.05,0,0,0,274.05,289.44Zm20.83-12-6.45,3.73c-.27.16-.3.4-.05.54l6.17,3.56a1,1,0,0,0,.93,0l6.45-3.72c.28-.16.3-.4.06-.55l-6.17-3.56A1.07,1.07,0,0,0,294.88,277.41Zm-52.1,48.4,6.45-3.72c.27-.16.3-.4.06-.54L243.12,318a1,1,0,0,0-.94,0l-6.45,3.72c-.27.16-.3.4-.06.54l6.17,3.57A1,1,0,0,0,242.78,325.81Zm62.46-53.87a1,1,0,0,0-.93,0l-6.45,3.73c-.28.15-.3.4-.06.54L304,279.8a1,1,0,0,0,.94,0l6.45-3.73c.27-.15.3-.4.05-.54ZM207,356.68,213.4,353c.27-.16.29-.4,0-.54l-6.17-3.56a1,1,0,0,0-.94,0l-6.45,3.72c-.27.16-.29.4,0,.54l6.17,3.56A1,1,0,0,0,207,356.68Zm115.59-66.74,6.45-3.72c.27-.16.3-.4.05-.54l-6.17-3.56a1,1,0,0,0-.93,0l-6.45,3.72c-.28.16-.3.4-.06.54L321.6,290A1,1,0,0,0,322.54,289.94Zm-18.24.36,6.45-3.73c.27-.15.3-.4.05-.54l-6.17-3.56a1.05,1.05,0,0,0-.93,0l-6.45,3.73c-.28.16-.3.4-.06.54l6.17,3.56A1,1,0,0,0,304.3,290.3ZM314.06,277a1,1,0,0,0-.94,0l-6.45,3.72c-.27.16-.3.41-.05.55l6.17,3.56a1.05,1.05,0,0,0,.93,0l6.45-3.73c.28-.16.3-.4.06-.54Zm2-1.15,15,8.66a1,1,0,0,0,.93,0l6.45-3.72c.28-.16.3-.4.06-.54l-15-8.65a1,1,0,0,0-.93,0l-6.45,3.72C315.82,275.5,315.8,275.74,316,275.88ZM294.27,288l-6.45,3.72c-.27.16-.3.4-.05.54l6.17,3.56a1,1,0,0,0,.93,0l6.45-3.72c.28-.16.3-.4.06-.54l-6.17-3.57A1,1,0,0,0,294.27,288ZM223.33,328.9l-6.45,3.73c-.28.16-.3.4-.06.54l6.17,3.56a1,1,0,0,0,.94,0l6.45-3.72c.27-.16.3-.4.05-.55l-6.17-3.56A1.05,1.05,0,0,0,223.33,328.9Zm88.85-33.48a1.05,1.05,0,0,0,.93,0l6.45-3.73c.28-.15.3-.4.06-.54l-6.17-3.56a1,1,0,0,0-.94,0l-6.45,3.73c-.27.15-.3.4-.05.54Zm-79.43,28-6.45,3.73c-.27.15-.29.4-.05.54l6.17,3.56a1.07,1.07,0,0,0,.94,0l6.44-3.73c.28-.15.3-.4.06-.54l-6.17-3.56A1,1,0,0,0,232.75,323.46Zm-73.87,60.46a1,1,0,0,0,.94,0l6.45-3.72c.27-.16.29-.4,0-.54l-6.17-3.56a1,1,0,0,0-.94,0l-6.44,3.72c-.28.16-.3.4-.06.54Zm-11-11.48-6.45,3.72c-.27.16-.3.4-.05.55l6.16,3.56a1.07,1.07,0,0,0,.94,0l6.45-3.73c.28-.16.3-.4.06-.54l-6.17-3.56A1,1,0,0,0,147.92,372.44Zm21.32,6,6.45-3.72c.28-.16.3-.4.06-.54l-6.17-3.57a1,1,0,0,0-.94,0l-6.45,3.72c-.27.16-.3.4-.05.54l6.17,3.56A1,1,0,0,0,169.24,378.45Zm9.43-5.44,6.45-3.73c.27-.15.3-.4,0-.54L179,365.18a1.05,1.05,0,0,0-.93,0l-6.45,3.73c-.28.16-.3.4-.06.54l6.17,3.56A1,1,0,0,0,178.67,373Zm9.42-5.44,6.45-3.73c.28-.16.3-.4.06-.54l-6.17-3.56a1,1,0,0,0-.94,0L181,363.49c-.27.16-.3.41,0,.55l6.17,3.56A1.05,1.05,0,0,0,188.09,367.57ZM157.35,367l-6.45,3.72c-.28.16-.3.4-.06.54l6.17,3.56a1,1,0,0,0,.94,0l6.45-3.72c.27-.16.3-.4,0-.54L158.28,367A1,1,0,0,0,157.35,367Zm9.42-5.44-6.45,3.72c-.27.16-.3.4,0,.54l6.17,3.56a1,1,0,0,0,.93,0l6.45-3.72c.28-.16.3-.4.06-.54l-6.17-3.57A1,1,0,0,0,166.77,361.56Zm37.71-21.77L198,343.51c-.28.16-.3.4-.06.54l6.17,3.56a1,1,0,0,0,.94,0l6.45-3.72c.27-.16.3-.4.05-.54l-6.17-3.56A1,1,0,0,0,204.48,339.79Zm-9.43,5.44L188.6,349c-.27.16-.3.4-.06.54l6.17,3.57a1,1,0,0,0,.94,0l6.45-3.72c.27-.16.3-.4.06-.54L196,345.2A1,1,0,0,0,195.05,345.23Zm18.85-10.88-6.45,3.72c-.27.16-.3.4,0,.54l6.17,3.56a1,1,0,0,0,.93,0l6.45-3.72c.28-.16.3-.4.06-.54l-6.17-3.57A1,1,0,0,0,213.9,334.35Zm-37.7,21.76-6.45,3.73c-.28.16-.3.4-.06.54l6.17,3.56a1,1,0,0,0,.94,0l6.45-3.72c.27-.16.3-.4.05-.55l-6.17-3.56A1.05,1.05,0,0,0,176.2,356.11Zm9.42-5.44-6.45,3.73c-.27.15-.3.4,0,.54l6.17,3.56a1,1,0,0,0,.94,0l6.44-3.73c.28-.15.3-.4.06-.54l-6.17-3.56A1,1,0,0,0,185.62,350.67Zm-12,35.45,6.45-3.73c.28-.15.3-.4.06-.54l-6.17-3.56a1,1,0,0,0-.94,0l-6.45,3.73c-.27.15-.3.4,0,.54l6.17,3.56A1,1,0,0,0,173.59,386.12Zm-49.7-2.35-6.17-3.56a1,1,0,0,0-.94,0L110.33,384c-.27.16-.3.4,0,.55l6.17,3.56a1.05,1.05,0,0,0,.93,0l6.45-3.73C124.11,384.15,124.13,383.91,123.89,383.77Zm12.28,3.09L130,383.29a1.05,1.05,0,0,0-.93,0l-9.92,5.73c-.28.16-.3.4-.06.54l6.17,3.57a1,1,0,0,0,.94,0l9.92-5.72C136.39,387.24,136.42,387,136.17,386.86Zm-21.49-10.12-6.17-3.57a1,1,0,0,0-.94,0l-7.94,4.58c-.27.16-.3.4,0,.54l6.17,3.56a1,1,0,0,0,.93,0l7.94-4.58C114.9,377.12,114.92,376.88,114.68,376.74Zm6.08-3.52a1,1,0,0,0,.94,0l6.45-3.72c.27-.16.3-.4.06-.54L122,365.36a1,1,0,0,0-.94,0l-6.45,3.72c-.28.16-.3.4-.06.54Zm26.71,17.29L141.3,387a1,1,0,0,0-.94,0L128,394.14c-.27.16-.3.4-.06.54l6.17,3.57a1,1,0,0,0,.94,0l12.4-7.16C147.69,390.89,147.71,390.65,147.47,390.51Zm4.35,7.67-6.17-3.56a1,1,0,0,0-.94,0l-7.94,4.58c-.27.16-.29.4-.05.54l6.17,3.56a1,1,0,0,0,.94,0l7.93-4.58C152,398.56,152.06,398.32,151.82,398.18Zm39-65.42a1,1,0,0,0,.93,0l6.45-3.73c.28-.15.3-.4.06-.54l-6.17-3.56a1.07,1.07,0,0,0-.94,0l-6.45,3.73c-.27.16-.3.4,0,.54ZM172,343.64a1,1,0,0,0,.94,0l6.45-3.72c.27-.16.3-.4.06-.54l-6.17-3.56a1,1,0,0,0-.94,0l-6.45,3.72c-.27.16-.3.4-.06.54Zm-41.8,24.14a1,1,0,0,0,.94,0l6.45-3.73c.27-.15.29-.4,0-.54l-6.17-3.56a1.07,1.07,0,0,0-.94,0l-6.45,3.73c-.27.16-.29.4,0,.54Zm51.23-29.58a1,1,0,0,0,.94,0l6.45-3.72c.27-.16.3-.4.05-.54l-6.17-3.57a1,1,0,0,0-.93,0l-6.45,3.72c-.28.16-.3.4-.06.54Zm-18.85,10.89a1,1,0,0,0,.94,0l6.44-3.72c.28-.16.3-.4.06-.54l-6.17-3.56a1,1,0,0,0-.94,0L156.45,345c-.27.16-.29.4,0,.54Zm-6.12,49.47a1,1,0,0,0-.94,0l-9.92,5.73c-.28.16-.3.4-.06.54l6.17,3.56a1,1,0,0,0,.94,0l9.92-5.73c.28-.16.3-.4.06-.54ZM149,356.9a1,1,0,0,0,.94,0l6.45-3.72c.27-.16.3-.4,0-.54L150.31,349a1,1,0,0,0-.93,0l-6.45,3.72c-.28.16-.3.4-.06.54Zm-9.42,5.44a1.05,1.05,0,0,0,.93,0l6.45-3.73c.28-.16.3-.4.06-.54l-6.17-3.56a1,1,0,0,0-.94,0l-6.45,3.72c-.27.16-.3.41-.05.55Zm191.46-64.6a1,1,0,0,0-.94,0l-15.88,9.17c-.27.15-.3.4-.05.54l6.17,3.56a1,1,0,0,0,.94,0l15.87-9.17c.27-.16.3-.4.06-.54Zm-20.84,12a1,1,0,0,0-.94,0l-6.45,3.72c-.27.16-.3.4-.05.54l6.17,3.57a1,1,0,0,0,.93,0l6.45-3.72c.28-.16.3-.4.06-.54ZM183,380.68l6.45-3.73c.27-.16.3-.4.05-.54l-6.17-3.56a1,1,0,0,0-.93,0L176,376.6c-.28.16-.3.4-.06.54l6.17,3.57A1.07,1.07,0,0,0,183,380.68Zm108.37-60a1.07,1.07,0,0,0-.94,0L284,324.41c-.27.16-.3.4-.05.54l6.17,3.56a1,1,0,0,0,.93,0l6.45-3.72c.28-.16.3-.41.06-.55ZM340.5,292.3a1,1,0,0,0-.94,0l-6.44,3.72c-.28.16-.3.4-.06.54l6.17,3.56a1,1,0,0,0,.94,0l6.45-3.72c.27-.16.29-.4.05-.54Zm15.6-1.88-15-8.65a1,1,0,0,0-.93,0l-6.45,3.72c-.28.16-.3.4-.06.54l15,8.65a1,1,0,0,0,.93,0L356,291C356.32,290.8,356.34,290.56,356.1,290.42ZM256.16,341a1,1,0,0,0-.93,0l-7.94,4.58c-.27.16-.3.4-.06.54l6.17,3.57a1,1,0,0,0,.94,0l7.94-4.58c.27-.16.3-.4.05-.54ZM280,327.24a1,1,0,0,0-.94,0L269.12,333c-.28.16-.3.4-.06.54l6.17,3.56a1,1,0,0,0,.94,0l9.92-5.73c.28-.15.3-.4.06-.54Zm-45.64,26.35a1,1,0,0,0-.94,0l-53.08,30.65c-.28.16-.3.4-.06.54l6.17,3.56a1,1,0,0,0,.94,0l53.08-30.65c.27-.15.3-.4.06-.54ZM178.28,386a1,1,0,0,0-.94,0l-7.94,4.58c-.27.16-.3.4-.05.54l6.17,3.57a1,1,0,0,0,.93,0l7.94-4.58c.27-.16.3-.4.06-.54Zm67-38.67a1,1,0,0,0-.94,0l-7.93,4.58c-.28.16-.3.41-.06.55l6.17,3.56a1.07,1.07,0,0,0,.94,0l7.93-4.59c.28-.16.3-.4.06-.54Zm-77.89,45a1,1,0,0,0-.93,0l-7.94,4.58c-.28.16-.3.4-.06.54L164.6,401a1,1,0,0,0,.94,0l7.94-4.58c.27-.16.3-.4.05-.54Zm99.72-57.57a1,1,0,0,0-.94,0l-7.94,4.58c-.27.16-.29.4-.05.54l6.17,3.56a1,1,0,0,0,.94,0l7.93-4.58c.28-.16.3-.4.06-.54Zm33.73-19.48a1,1,0,0,0-.93,0L293.43,319c-.28.15-.3.4-.06.54l6.17,3.56a1.07,1.07,0,0,0,.94,0l6.45-3.73c.27-.16.3-.4.05-.54Zm21.12-14.73,6.45-3.73c.27-.16.3-.4.05-.54l-6.17-3.56a1,1,0,0,0-.94,0l-6.45,3.72c-.27.16-.29.41-.05.55l6.17,3.56A1.07,1.07,0,0,0,321.93,300.48Zm-38.47,1.85,6.45-3.73c.27-.15.3-.4.06-.54l-6.17-3.56a1,1,0,0,0-.94,0l-6.45,3.73c-.27.16-.3.4-.05.54l6.16,3.56A1,1,0,0,0,283.46,302.33Zm-25,34.81,18.85-10.89c.27-.15.3-.4.05-.54l-6.17-3.56a1,1,0,0,0-.93,0l-18.86,10.89c-.27.16-.29.4-.05.54l6.17,3.56A1,1,0,0,0,258.43,337.14ZM311.56,306a1,1,0,0,0,.94,0l6.45-3.73c.27-.15.3-.4.06-.54l-6.17-3.56a1.07,1.07,0,0,0-.94,0l-6.45,3.73c-.27.15-.3.4-.06.54Zm-7.87-5.12,6.45-3.72c.27-.16.29-.41.05-.54L304,293a1.07,1.07,0,0,0-.94,0l-6.44,3.73c-.28.16-.3.4-.06.54l6.17,3.56A1,1,0,0,0,303.69,300.83ZM249,342.58l6.45-3.72c.27-.16.3-.4.05-.54l-6.17-3.57a1,1,0,0,0-.93,0L242,338.51c-.28.16-.3.4-.06.54l6.17,3.56A1,1,0,0,0,249,342.58ZM290.73,318a1,1,0,0,0,.93,0l6.45-3.73c.28-.15.3-.4.06-.54L292,310.12a1.07,1.07,0,0,0-.94,0l-6.45,3.73c-.27.16-.3.4-.05.54Zm-88.86,51.81,6.45-3.72c.27-.16.3-.4.05-.54L202.2,362a1,1,0,0,0-.93,0l-6.45,3.72c-.28.16-.3.4-.06.54l6.17,3.56A1,1,0,0,0,201.87,369.79Zm9.43-5.44,6.45-3.72c.27-.16.29-.41.05-.55l-6.17-3.56a1.07,1.07,0,0,0-.94,0l-6.45,3.73c-.27.16-.29.4-.05.54l6.17,3.56A1,1,0,0,0,211.3,364.35Zm-18.86,10.88,6.45-3.72c.28-.16.3-.4.06-.54l-6.17-3.56a1,1,0,0,0-.94,0l-6.45,3.72c-.27.16-.3.4,0,.54l6.17,3.57A1,1,0,0,0,192.44,375.23Zm37.71-21.77,6.45-3.72c.27-.16.3-.4.05-.54l-6.17-3.56a1,1,0,0,0-.93,0l-6.45,3.72c-.28.16-.3.4-.06.54l6.17,3.57A1,1,0,0,0,230.15,353.46Zm-9.43,5.45,6.45-3.73c.27-.15.3-.4.06-.54l-6.17-3.56a1,1,0,0,0-.94,0l-6.45,3.73c-.27.15-.3.4-.06.54l6.18,3.56A1.05,1.05,0,0,0,220.72,358.91ZM239.57,348,246,344.3c.28-.16.3-.4.06-.54l-6.17-3.56a1,1,0,0,0-.94,0L232.52,344c-.27.16-.3.4-.05.54l6.17,3.57A1.05,1.05,0,0,0,239.57,348ZM291,272.32a1,1,0,0,0,.94,0l6.45-3.72c.27-.16.3-.4.05-.54l-1.64-.95a1,1,0,0,0-.94,0l-6.45,3.73c-.27.15-.29.4-.05.54ZM244.16,302a1,1,0,0,0,.94,0l6.45-3.73c.27-.15.3-.4,0-.54l-6.17-3.56a1,1,0,0,0-.93,0l-6.45,3.73c-.28.15-.3.4-.06.54ZM263,291.09a1,1,0,0,0,.94,0l6.45-3.72c.27-.16.3-.4.05-.54l-6.17-3.56a1,1,0,0,0-.93,0L256.9,287c-.28.16-.3.4-.06.54Zm-30.36,17.53a1,1,0,0,0,.94,0l6.45-3.72c.27-.16.3-.4.05-.54l-6.17-3.57a1,1,0,0,0-.93,0l-6.45,3.72c-.28.16-.3.4-.06.54Zm20.94-12.08a1.05,1.05,0,0,0,.93,0l6.45-3.73c.28-.16.3-.4.06-.54l-6.17-3.56a1,1,0,0,0-.94,0l-6.45,3.72c-.27.16-.3.4-.05.54Zm-39.79,23a1.07,1.07,0,0,0,.94,0l6.45-3.73c.27-.16.29-.4.05-.54l-6.17-3.56a1,1,0,0,0-.94,0l-6.45,3.72c-.27.16-.29.41-.05.55Zm9.43-5.44a1,1,0,0,0,.93,0l6.45-3.72c.28-.16.3-.4.06-.54l-6.17-3.56a1,1,0,0,0-.94,0L217.11,310c-.27.16-.3.4-.05.54Zm48.93-30.87a1,1,0,0,0,.94,0l6.45-3.73c.27-.15.29-.4.05-.54L278,278a1,1,0,0,0-.94,0l-6.45,3.72c-.27.16-.3.4-.05.54Zm28.28-16.33a1,1,0,0,0,.93,0l6.45-3.72c.28-.16.3-.4.06-.54l-1.64-.95a1,1,0,0,0-.94,0l-6.45,3.72c-.27.16-.3.41-.06.55Zm13,7.49a1.07,1.07,0,0,0,.94,0l6.44-3.73c.28-.16.3-.4.06-.54l-6.17-3.56a1,1,0,0,0-.94,0l-6.45,3.72c-.27.16-.3.4,0,.54Zm18,20.67,6.45-3.72c.28-.16.3-.4.06-.54l-6.17-3.56a1,1,0,0,0-.94,0L324.3,291c-.27.16-.3.4-.05.54l6.17,3.57A1,1,0,0,0,331.35,295Zm-49.76-17.27a1.05,1.05,0,0,0,.93,0L289,274c.28-.16.3-.4.06-.54l-1.65-.95a1,1,0,0,0-.93,0L280,276.27c-.28.16-.3.4-.06.54ZM204.37,325a1,1,0,0,0,.94,0l6.45-3.73c.27-.15.3-.4.06-.54l-6.18-3.56a1.05,1.05,0,0,0-.93,0l-6.45,3.73c-.27.16-.3.4-.06.54Z" style="fill:#455a64"></path><polygon points="231.37 378.59 232.77 379.4 270.02 400.9 336.26 362.65 337.64 361.87 298.99 339.56 231.37 378.59" style="fill:#263238"></polygon><polygon points="335.41 363.15 298.99 342.13 233.62 379.89 270.02 400.9 335.41 363.15" style="fill:#37474f"></polygon></g></g><g id="freepik--Screen--inject-1"><g id="freepik--Window--inject-1"><path d="M67.21,355.84a4.15,4.15,0,0,1-1.85.56,4.66,4.66,0,0,1-2.71-.48,5,5,0,0,1-2.22-4V214.44L64.86,217V354.47c0,1.07.53,1.69,1.31,1.69A2.4,2.4,0,0,0,67.21,355.84Z" style="fill:#e6e6e6"></path><path d="M66.06,355.6c-.67,0-.75-.79-.75-1.13V204.64L281.73,79.69V228.88a4.68,4.68,0,0,1-2.07,3.61L66.83,355.35A1.61,1.61,0,0,1,66.06,355.6Z" style="fill:#fafafa"></path><path d="M281.28,80.66V228.88a4.1,4.1,0,0,1-1.8,3.13L66.65,354.87a1,1,0,0,1-.49.18c-.19,0-.19-.57-.19-.58V205L281.28,80.66m1.11-1.93L64.86,204.32V354.47c0,1.07.53,1.69,1.3,1.69a2.18,2.18,0,0,0,1-.32L280,233a5.19,5.19,0,0,0,2.36-4.09V78.73Z" style="fill:#ebebeb"></path><path d="M282.36,65.75c-.16-1.22-1.15-1.67-2.33-1L67.21,187.63a5.1,5.1,0,0,0-1.67,1.77l-4.42-2.56a4.89,4.89,0,0,1,1.67-1.76L275.61,62.22a4.4,4.4,0,0,1,6.75,3.53Z" style="fill:#6C63FF"></path><path d="M282.36,65.75c-.16-1.22-1.15-1.67-2.33-1L67.21,187.63a5.1,5.1,0,0,0-1.67,1.77l-4.42-2.56a4.89,4.89,0,0,1,1.67-1.76L275.61,62.22a4.4,4.4,0,0,1,6.75,3.53Z" style="fill:#fff;opacity:0.2"></path><path d="M65.54,189.4a4.84,4.84,0,0,0-.68,2.32v12.61l-4.44-2.56v-12.6a2.81,2.81,0,0,1,0-.29,4.71,4.71,0,0,1,.09-.58,5.39,5.39,0,0,1,.59-1.46Z" style="fill:#6C63FF"></path><path d="M65.54,189.4a4.84,4.84,0,0,0-.68,2.32v12.61l-4.44-2.56v-12.6a2.81,2.81,0,0,1,0-.29,4.71,4.71,0,0,1,.09-.58,5.39,5.39,0,0,1,.59-1.46Z" style="opacity:0.2"></path><path d="M282.38,66.13v12.6l-148.77,86c-1.3.75-2.36.14-2.36-1.36v-4.77c0-1.51-1-2.12-2.36-1.36L76.07,187.63c-1.13.59-1.2,2.07-1.52,4.09l-.85,4.77c-.34,2-1,3.33-2.35,4.08l-6.49,3.75v-12.6a5.21,5.21,0,0,1,2.35-4.09L280,64.77C281.33,64,282.38,64.63,282.38,66.13Z" style="fill:#6C63FF"></path><path d="M275.63,72.89c1-.58,1.81-.11,1.81,1a4,4,0,0,1-1.81,3.14c-1,.57-1.81.11-1.81-1A4,4,0,0,1,275.63,72.89Z" style="fill:#fff"></path><path d="M269.11,76.64c1-.57,1.81-.11,1.81,1a4,4,0,0,1-1.81,3.13c-1,.58-1.8.11-1.8-1A4,4,0,0,1,269.11,76.64Z" style="fill:#fff"></path><path d="M262.6,80.4c1-.58,1.81-.11,1.81,1a4,4,0,0,1-1.81,3.14c-1,.57-1.81.11-1.81-1A4,4,0,0,1,262.6,80.4Z" style="fill:#fff"></path><path d="M282.39,78.73V91.42L64.86,217V204.32l4.85-2.81c1.29-.75,1.73-1.89,2.35-4.08l1.64-5.71c.52-2,1.06-3.34,2.37-4.09l54.78-31.55c1.31-.75,2.33-.83,3.32.81l2,3.66c.74,1.28,1.11,2,2.41,1.28Z" style="fill:#e0e0e0"></path><polygon points="64.86 204.32 64.86 217 60.42 214.44 60.42 201.77 64.86 204.32" style="fill:#e0e0e0"></polygon><polygon points="64.86 204.32 64.86 217 60.42 214.44 60.42 201.77 64.86 204.32" style="opacity:0.15"></polygon><path d="M70.66,207.05,68,208.59l1-2a.49.49,0,0,0,0-.48c-.08-.09-.21,0-.3.14l-1.45,2.78v0a.3.3,0,0,0,0,.1s0,0,0,0a.77.77,0,0,0,0,.15.5.5,0,0,0,0,.12s0,0,0,0l0,.06h0l1.45,1.11a.12.12,0,0,0,.14,0,.37.37,0,0,0,.16-.2c.08-.19.07-.39,0-.46l-1-.78,2.66-1.54a.56.56,0,0,0,.22-.45C70.88,207.08,70.78,207,70.66,207.05Z" style="opacity:0.2"></path><path d="M72.89,205.77l2.66-1.54-1-.78c-.09-.07-.1-.27,0-.46s.21-.27.3-.2l1.44,1.11h0l0,.05v0a.51.51,0,0,1,0,.13.78.78,0,0,1,0,.14v0s0,.07,0,.11h0l-1.44,2.78a.38.38,0,0,1-.14.16.11.11,0,0,1-.16,0,.49.49,0,0,1,0-.48l1-2-2.66,1.54c-.12.07-.22,0-.22-.21A.56.56,0,0,1,72.89,205.77Z" style="opacity:0.2"></path><path d="M81.63,198.09c0-.16-.16-.14-.23,0L81,199c-.62-.07-1.38.54-1.89,1.62-.66,1.4-.66,3.05,0,3.68a.94.94,0,0,0,1.2.08,3.31,3.31,0,0,0,1.2-1.46.46.46,0,0,0,0-.46c-.09-.08-.22,0-.31.17-.49,1-1.29,1.51-1.79,1s-.49-1.71,0-2.75c.36-.74.86-1.18,1.3-1.21l-.28.67c-.07.18,0,.34.11.27l1.09-.71a.38.38,0,0,0,.12-.3Z" style="opacity:0.2"></path><path d="M131.53,161.36l1-2.19a.63.63,0,0,0,0-.68c-.12-.12-.32,0-.44.26l-1,2.19-1-1c-.12-.12-.32,0-.44.26a.68.68,0,0,0,0,.68l1,1-1,2.19a.67.67,0,0,0,0,.68.18.18,0,0,0,.22,0,.62.62,0,0,0,.22-.27l1-2.19,1,1a.18.18,0,0,0,.22,0,.62.62,0,0,0,.22-.27c.13-.26.13-.57,0-.68Z" style="opacity:0.2"></path><path d="M85.17,200.62v-3.43a3.75,3.75,0,0,1,1.69-2.94L269.52,88.87c.94-.54,1.7-.1,1.7,1v3.44a3.77,3.77,0,0,1-1.7,2.94L86.86,201.6C85.93,202.14,85.17,201.7,85.17,200.62Z" style="fill:#fafafa"></path><path d="M267.21,96.49a.37.37,0,0,1-.15,0,.46.46,0,0,1-.26-.51l.17-1.4-.65-.47a.44.44,0,0,1-.18-.38.72.72,0,0,1,.28-.59l1-.77,0-.08.44-1.46a.61.61,0,0,1,.51-.47.4.4,0,0,1,.39.23l.37.8L270,91a.4.4,0,0,1,.45.11.58.58,0,0,1,0,.68l-.72,1.36a.15.15,0,0,0,0,.08l.17,1.22a.81.81,0,0,1-.21.62.48.48,0,0,1-.4.15l-.81-.1-.88,1.12A.51.51,0,0,1,267.21,96.49Zm-.48-2.84.65.47a.5.5,0,0,1,.18.47l-.11.93.59-.75a.45.45,0,0,1,.44-.21l.82.1a.19.19,0,0,0,0-.09l-.17-1.23a.77.77,0,0,1,.08-.44l.64-1.18-.65.24a.4.4,0,0,1-.52-.2l-.29-.63-.4,1.3a.79.79,0,0,1-.25.38l-1,.76A.22.22,0,0,0,266.73,93.65ZM269,91.41h0Z" style="fill:#e0e0e0"></path><g style="opacity:0.2"><path d="M273.22,88.45a.59.59,0,0,1-.51-.29.6.6,0,0,1,.21-.81l4.78-2.75a.58.58,0,1,1,.59,1l-4.78,2.76A.51.51,0,0,1,273.22,88.45Z"></path><path d="M273.22,91.21a.59.59,0,0,1-.51-.29.6.6,0,0,1,.21-.81l4.78-2.76a.6.6,0,0,1,.81.22.59.59,0,0,1-.22.8l-4.78,2.76A.51.51,0,0,1,273.22,91.21Z"></path><path d="M273.22,94a.61.61,0,0,1-.51-.29.6.6,0,0,1,.21-.81l4.78-2.76a.6.6,0,0,1,.81.22.59.59,0,0,1-.22.8l-4.78,2.76A.6.6,0,0,1,273.22,94Z"></path></g></g></g><g id="freepik--Padlock--inject-1"><g id="freepik--padlock--inject-1"><path d="M144.21,238.24a3.75,3.75,0,0,0-2.21-3.07l-4.34-2.5a11.76,11.76,0,0,0-10.65,0L87.69,255.36a3.74,3.74,0,0,0-2.2,3.08h0v51.93h0a3.71,3.71,0,0,0,2.2,3.08L92,316a11.76,11.76,0,0,0,10.65,0L142,293.26a3.75,3.75,0,0,0,2.21-3.08h0V238.24Z" style="fill:#6C63FF"></path><path d="M144.21,238.24a3.75,3.75,0,0,0-2.21-3.07l-4.34-2.5a11.76,11.76,0,0,0-10.65,0L87.69,255.36a3.74,3.74,0,0,0-2.2,3.08h0v51.93h0a3.71,3.71,0,0,0,2.2,3.08L92,316a11.76,11.76,0,0,0,10.65,0L142,293.26a3.75,3.75,0,0,0,2.21-3.08h0V238.24Z" style="fill:#fff;opacity:0.4"></path><path d="M92,264l-4.34-2.5c-2.94-1.7-2.94-4.46,0-6.16L127,232.67a11.76,11.76,0,0,1,10.65,0l4.34,2.5c2.94,1.7,2.94,4.45,0,6.15L102.68,264A11.76,11.76,0,0,1,92,264Z" style="fill:#fff;opacity:0.4"></path><path d="M97.36,265.29v51.94A10.88,10.88,0,0,1,92,316l-4.34-2.51a3.73,3.73,0,0,1-2.2-3.08V258.44a3.71,3.71,0,0,0,2.2,3.07L92,264A10.88,10.88,0,0,0,97.36,265.29Z" style="fill:#6C63FF;opacity:0.30000000000000004"></path><path d="M126,291l-9.39,5.42,1.46-17c-1.12-.59-1.84-2.05-1.84-4.15,0-3.74,2.27-8.08,5.08-9.7s5.08.1,5.08,3.84a12.79,12.79,0,0,1-1.84,6.27Z" style="fill:#455a64"></path><polygon points="125.97 290.98 117.47 286.07 116.58 296.4 125.97 290.98" style="fill:#37474f"></polygon><path d="M121.28,265.57a11,11,0,0,0-4.33,5.74l7.57,4.37h0a12.79,12.79,0,0,0,1.84-6.27C126.36,265.67,124.08,264,121.28,265.57Z" style="fill:#37474f"></path><path d="M133.58,239.4h0V218.63c0-6.43-2.43-11.52-6.67-14-4-2.33-9-2-14.08.89-9.26,5.35-16.51,18.39-16.51,29.69v20.88h0a2.11,2.11,0,0,0,1.25,1.73,6.61,6.61,0,0,0,6,0,2.11,2.11,0,0,0,1.25-1.73h0V235.24c0-8.27,5.61-18.49,12.26-22.33,2.26-1.31,4.3-1.63,5.58-.89,1.52.88,2.42,3.35,2.42,6.61V239.4h0a2.1,2.1,0,0,0,1.24,1.72,6.61,6.61,0,0,0,6,0,2.12,2.12,0,0,0,1.25-1.72h0Z" style="fill:#455a64"></path></g></g><g id="freepik--Asterisks--inject-1"><g id="freepik--Password--inject-1"><path id="freepik--shadow--inject-1" d="M45.47,108.88,169.1,37.5c2.2-1.27,4-.23,4,2.31V63.92a3.61,3.61,0,0,1-1.62,2.81l-126,72.75c-.9.52-1.63.1-1.63-.94V111.69A3.59,3.59,0,0,1,45.47,108.88Z" style="fill:#e0e0e0"></path><g id="freepik--speech-bubble--inject-1"><path d="M169.18,42.3,49.91,111.14a4,4,0,0,0-1.79,3.1V138.9a3.91,3.91,0,0,0,1.8,3.08l3.41,1.93a4,4,0,0,0,3.58,0L176.18,75.05A4,4,0,0,0,178,72V47.3a3.91,3.91,0,0,0-1.8-3.08l-3.41-1.94A4,4,0,0,0,169.18,42.3Z" style="fill:#6C63FF"></path><g style="opacity:0.30000000000000004"><path d="M56.91,143.89a4.11,4.11,0,0,1-3.59,0L49.92,142a3.88,3.88,0,0,1-1.8-3.07V114.24a3.66,3.66,0,0,1,.57-1.83l7,4a3.56,3.56,0,0,0-.53,1.76v24.65C55.12,143.9,55.86,144.5,56.91,143.89Z" style="fill:#fff"></path></g><g style="opacity:0.5"><path d="M177.94,47c-.14-.9-.87-1.22-1.77-.71L56.92,115.1a3.65,3.65,0,0,0-1.27,1.34l-7-4a3.66,3.66,0,0,1,1.23-1.27L169.18,42.3a4,4,0,0,1,3.58,0l3.41,1.93A4,4,0,0,1,177.94,47Z" style="fill:#fff"></path></g><path d="M176.18,46.26,56.91,115.1a4,4,0,0,0-1.79,3.1v24.66c0,1.14.8,1.6,1.79,1L176.18,75.05A4,4,0,0,0,178,72V47.3C178,46.16,177.17,45.69,176.18,46.26Z" style="fill:#6C63FF"></path><path d="M176.18,46.26,56.91,115.1a4,4,0,0,0-1.79,3.1v24.66c0,1.14.8,1.6,1.79,1L176.18,75.05A4,4,0,0,0,178,72V47.3C178,46.16,177.17,45.69,176.18,46.26Z" style="fill:#fff;opacity:0.7000000000000001"></path></g><path d="M67.58,122.39l1.9-2.57a.65.65,0,0,1,.09-.13l.06-.08a.53.53,0,0,1,.36-.15c.12,0,.2.09.25.24l.39,1.43a.77.77,0,0,1,0,.49,1.17,1.17,0,0,1-.27.47l-.18.16L68,123.8l1.64,1a.12.12,0,0,1,.08,0l0,.05a.52.52,0,0,1,.08.41,1,1,0,0,1-.19.55l-1.07,1.64a.68.68,0,0,1-.35.29.3.3,0,0,1-.3-.06l-.09-.15L67,125.43l-.88,3.12-.08.26a1.39,1.39,0,0,1-.31.41.35.35,0,0,1-.35.11l-1.06-.4c-.12,0-.19-.14-.2-.32a.91.91,0,0,1,.09-.52l0-.1a.71.71,0,0,1,.09-.15L65.9,125l-2.16,1c-.12,0-.17.06-.17,0a.22.22,0,0,1-.27-.15.64.64,0,0,1,0-.46l.39-1.88a1.26,1.26,0,0,1,.26-.53.75.75,0,0,1,.36-.26h0a.24.24,0,0,1,.1,0l1.87.4-.46-2.59c0-.09,0-.16,0-.22a1.27,1.27,0,0,1,.14-.52.89.89,0,0,1,.34-.39l1.31-.76a.27.27,0,0,1,.34,0,.45.45,0,0,1,.14.35c0,.06,0,.14,0,.25Z" style="fill:#fff"></path><path d="M81.62,114.29l1.9-2.58a.53.53,0,0,1,.1-.13l0-.07a.48.48,0,0,1,.36-.15c.12,0,.21.08.25.23l.39,1.43a.74.74,0,0,1,0,.5,1.08,1.08,0,0,1-.27.46,1.13,1.13,0,0,1-.18.16L82,115.69l1.64,1,.09,0a.07.07,0,0,0,0,.05.58.58,0,0,1,.09.42,1.11,1.11,0,0,1-.2.55l-1.07,1.63a.63.63,0,0,1-.35.29.26.26,0,0,1-.3-.06l-.09-.15L81,117.33l-.87,3.12-.09.25a1,1,0,0,1-.31.41.35.35,0,0,1-.35.11l-1.06-.4c-.12,0-.19-.13-.2-.32a1,1,0,0,1,.09-.52l0-.09a.54.54,0,0,1,.09-.16l1.61-2.85-2.16,1c-.11,0-.17.06-.17,0a.22.22,0,0,1-.27-.15.64.64,0,0,1,0-.46l.39-1.88a1.22,1.22,0,0,1,.26-.52.71.71,0,0,1,.36-.27,0,0,0,0,0,0,0l.1,0,1.87.4-.45-2.58a1,1,0,0,1,0-.22,1.1,1.1,0,0,1,.14-.52.85.85,0,0,1,.33-.4l1.31-.76a.28.28,0,0,1,.34,0,.46.46,0,0,1,.14.36s0,.14,0,.24Z" style="fill:#fff"></path><path d="M95.66,106.18l1.9-2.58.1-.13a.18.18,0,0,0,0-.07.48.48,0,0,1,.36-.15.27.27,0,0,1,.25.23l.39,1.43a.74.74,0,0,1,0,.5.94.94,0,0,1-.27.46.6.6,0,0,1-.18.16l-2.18,1.55,1.64,1a.19.19,0,0,1,.09,0l0,0a.55.55,0,0,1,.09.41,1.08,1.08,0,0,1-.2.55l-1.07,1.63a.59.59,0,0,1-.35.29.28.28,0,0,1-.3-.05l-.09-.16L95,109.22l-.87,3.12-.09.25a1,1,0,0,1-.31.41c-.13.12-.24.16-.34.12l-1.07-.4c-.12,0-.18-.14-.2-.33a1.1,1.1,0,0,1,.09-.51,1,1,0,0,0,0-.1l.09-.15L94,108.78l-2.16,1c-.11,0-.17.07-.17,0a.22.22,0,0,1-.27-.15.64.64,0,0,1,0-.46l.4-1.89a1.1,1.1,0,0,1,.25-.52.63.63,0,0,1,.36-.26h.05a.19.19,0,0,1,.1,0l1.87.4-.45-2.58a.94.94,0,0,1,0-.22,1.1,1.1,0,0,1,.14-.52.9.9,0,0,1,.33-.4l1.31-.75a.27.27,0,0,1,.34,0,.44.44,0,0,1,.14.36c0,.06,0,.14,0,.25Z" style="fill:#fff"></path><path d="M109.7,98.07l1.9-2.57a.58.58,0,0,1,.1-.13.35.35,0,0,0,0-.08.56.56,0,0,1,.36-.15c.13,0,.21.09.25.24l.39,1.43a.71.71,0,0,1,0,.49,1,1,0,0,1-.27.47.9.9,0,0,1-.17.16l-2.18,1.54,1.63,1a.19.19,0,0,1,.09,0l0,0a.55.55,0,0,1,.09.41,1,1,0,0,1-.2.55l-1.07,1.64a.66.66,0,0,1-.34.29.32.32,0,0,1-.31-.06l-.09-.15-.87-2.12-.87,3.12-.09.26a1.21,1.21,0,0,1-.3.41c-.14.11-.25.15-.35.11l-1.07-.4c-.12,0-.18-.14-.2-.32a1.12,1.12,0,0,1,.09-.52,1,1,0,0,0,0-.1l.09-.15,1.61-2.85-2.15,1c-.12.05-.18.06-.18,0a.22.22,0,0,1-.27-.15.6.6,0,0,1,0-.46l.39-1.88a1.24,1.24,0,0,1,.25-.53.75.75,0,0,1,.36-.26h0a.2.2,0,0,1,.1,0l1.88.4L108,96.23a.94.94,0,0,1,0-.22,1.13,1.13,0,0,1,.14-.52.83.83,0,0,1,.34-.39l1.3-.76a.27.27,0,0,1,.34,0,.42.42,0,0,1,.14.35,1.29,1.29,0,0,1,0,.25Z" style="fill:#fff"></path><path d="M123.74,90l1.9-2.58.1-.13.05-.07a.48.48,0,0,1,.36-.15c.13,0,.21.08.25.23l.4,1.43a.81.81,0,0,1,0,.5.94.94,0,0,1-.27.46s-.07.08-.17.16l-2.18,1.55,1.63,1,.09,0a.11.11,0,0,0,0,0,.58.58,0,0,1,.09.42,1.11,1.11,0,0,1-.2.55L124.72,95a.62.62,0,0,1-.34.29.28.28,0,0,1-.31-.06l-.09-.15L123.11,93l-.87,3.12-.09.25a1.12,1.12,0,0,1-.3.41.35.35,0,0,1-.35.11l-1.07-.4c-.12,0-.18-.13-.2-.32a1.08,1.08,0,0,1,.09-.51l0-.1.09-.16,1.61-2.85-2.15,1c-.12,0-.18.06-.18,0a.22.22,0,0,1-.27-.15.59.59,0,0,1,0-.46l.39-1.88a1.2,1.2,0,0,1,.25-.52.71.71,0,0,1,.36-.27,0,0,0,0,0,0,0l.1,0,1.88.4L122,88.13a1,1,0,0,1,0-.22,1.1,1.1,0,0,1,.14-.52.86.86,0,0,1,.34-.4l1.31-.76a.27.27,0,0,1,.33,0,.43.43,0,0,1,.15.36,1.39,1.39,0,0,1,0,.24Z" style="fill:#fff"></path><path d="M137.78,81.86l1.9-2.58.1-.13a.18.18,0,0,0,.05-.07.48.48,0,0,1,.36-.15c.13,0,.21.08.26.23l.39,1.43a.81.81,0,0,1,0,.5.94.94,0,0,1-.27.46.52.52,0,0,1-.17.16l-2.18,1.55,1.63,1a.15.15,0,0,1,.09.05l0,0c.08.07.1.21.09.41a1,1,0,0,1-.2.55l-1.06,1.63a.62.62,0,0,1-.35.29.3.3,0,0,1-.31,0L138,87l-.87-2.11L136.28,88l-.09.25a1.12,1.12,0,0,1-.3.41c-.13.12-.25.16-.35.12l-1.07-.4c-.12,0-.18-.14-.2-.33a1.1,1.1,0,0,1,.09-.51l0-.1a.56.56,0,0,1,.08-.15l1.62-2.85-2.16,1c-.12,0-.18.06-.18,0s-.2,0-.27-.15a.6.6,0,0,1,0-.46l.39-1.89a1.2,1.2,0,0,1,.25-.52.63.63,0,0,1,.36-.26h.06s.05,0,.09,0l1.88.4L136,80c0-.09,0-.16,0-.22a1.23,1.23,0,0,1,.14-.52.92.92,0,0,1,.34-.4l1.31-.75a.26.26,0,0,1,.33,0,.45.45,0,0,1,.15.36,1.29,1.29,0,0,1,0,.24Z" style="fill:#fff"></path><path d="M151.83,73.75l1.89-2.57.1-.13.06-.08a.53.53,0,0,1,.36-.15c.12,0,.2.09.25.24l.39,1.43a.85.85,0,0,1,0,.49,1.07,1.07,0,0,1-.28.47.9.9,0,0,1-.17.16l-2.18,1.55,1.63,1a.13.13,0,0,1,.09.05l0,0a.48.48,0,0,1,.09.41,1,1,0,0,1-.19.55l-1.07,1.64a.72.72,0,0,1-.35.29.33.33,0,0,1-.31-.06l-.08-.15-.88-2.12-.87,3.12-.09.26a1.21,1.21,0,0,1-.3.41.35.35,0,0,1-.35.11l-1.07-.4c-.11,0-.18-.14-.19-.32a1,1,0,0,1,.08-.52l0-.1a1.2,1.2,0,0,1,.08-.15l1.62-2.85-2.16,1c-.12,0-.18.06-.18,0s-.2,0-.27-.15a.64.64,0,0,1,0-.46l.39-1.88a1.24,1.24,0,0,1,.25-.53.85.85,0,0,1,.36-.26h.06a.18.18,0,0,1,.09,0l1.88.4-.46-2.59c0-.09,0-.16,0-.22a1.27,1.27,0,0,1,.14-.52.89.89,0,0,1,.34-.39l1.31-.76a.27.27,0,0,1,.34,0,.45.45,0,0,1,.14.35,1.49,1.49,0,0,1,0,.25Z" style="fill:#fff"></path><path d="M165.87,65.65l1.89-2.58.1-.13.06-.07a.45.45,0,0,1,.36-.15c.12,0,.2.08.25.23l.39,1.43a.88.88,0,0,1,0,.5,1.09,1.09,0,0,1-.28.46s-.07.08-.17.16l-2.18,1.55,1.63,1c.05,0,.08,0,.09,0a.12.12,0,0,0,.05.05.54.54,0,0,1,.08.42,1.1,1.1,0,0,1-.19.55l-1.07,1.63a.63.63,0,0,1-.35.29.28.28,0,0,1-.31-.06l-.08-.15-.87-2.11-.88,3.12-.08.25a1.27,1.27,0,0,1-.31.41.35.35,0,0,1-.35.11l-1.07-.4c-.11,0-.18-.13-.19-.32a1,1,0,0,1,.08-.52.73.73,0,0,0,.05-.09.54.54,0,0,1,.09-.16l1.61-2.85-2.16,1c-.12,0-.17.06-.17,0a.23.23,0,0,1-.28-.15.7.7,0,0,1,0-.46l.39-1.88a1.32,1.32,0,0,1,.25-.52.8.8,0,0,1,.36-.27.07.07,0,0,0,.06,0l.1,0,1.87.4-.46-2.58c0-.09,0-.17,0-.22a1.23,1.23,0,0,1,.14-.52.92.92,0,0,1,.34-.4l1.31-.76a.28.28,0,0,1,.34,0,.46.46,0,0,1,.14.36s0,.14,0,.24Z" style="fill:#fff"></path></g></g><g id="freepik--Key--inject-1"><g id="freepik--key--inject-1"><path d="M36.23,428v3.51c0,4.12,2.67,8.25,8.1,11.42,8.19,4.76,20.23,6,30.33,3.58L84,451.91l7.2-1.6,4.91,2.85.24,5.94L99,460.64l6.65.6,4.77,2.69v3.34l6,3.49,15.25.05,5.47-3.13,0-3.54L88.44,439.35a11.21,11.21,0,0,0,3.41-7.65v-3.55c-.72-3.42-3.57-5.2-8.11-7.85-10.84-6.31-28.46-6.37-39.34-.14C39.51,423,36.73,424.26,36.23,428Zm15-4a12.29,12.29,0,0,1,11.14,0c3.08,1.78,3.07,4.67,0,6.43a12.29,12.29,0,0,1-11.14,0C48.08,428.55,48.09,425.67,51.18,423.91Z" style="fill:#6C63FF"></path><path d="M36.23,428v3.51c0,4.12,2.67,8.25,8.1,11.42,8.19,4.76,20.23,6,30.33,3.58L84,451.91l7.2-1.6,4.91,2.85.24,5.94L99,460.64l6.65.6,4.77,2.69v3.34l6,3.49,15.25.05,5.47-3.13,0-3.54L88.44,439.35a11.21,11.21,0,0,0,3.41-7.65v-3.55c-.72-3.42-3.57-5.2-8.11-7.85-10.84-6.31-28.46-6.37-39.34-.14C39.51,423,36.73,424.26,36.23,428Zm15-4a12.29,12.29,0,0,1,11.14,0c3.08,1.78,3.07,4.67,0,6.43a12.29,12.29,0,0,1-11.14,0C48.08,428.55,48.09,425.67,51.18,423.91Z" style="opacity:0.2"></path><path d="M44.34,439.34c8.18,4.76,20.23,6,30.32,3.58L84,448.37l7.21-1.61,4.9,2.86.25,5.94L99,457.1l6.64.6,5.18,2.91-.42,3.12,6,3.49,15.25,0,5.48-3.13L88.45,435.81c5.77-6.07,4.22-13.86-4.69-19.05-10.84-6.31-28.45-6.37-39.34-.14S33.49,433,44.34,439.34Zm6.85-19a12.31,12.31,0,0,1,11.15,0c3.07,1.78,3.06,4.67,0,6.43a12.29,12.29,0,0,1-11.14,0C48.1,425,48.11,422.13,51.19,420.37Z" style="fill:#6C63FF"></path><path d="M44.34,439.34c8.18,4.76,20.23,6,30.32,3.58L84,448.37l7.21-1.61,4.9,2.86.25,5.94L99,457.1l6.64.6,5.18,2.91-.42,3.12,6,3.49,15.25,0,5.48-3.13L88.45,435.81c5.77-6.07,4.22-13.86-4.69-19.05-10.84-6.31-28.45-6.37-39.34-.14S33.49,433,44.34,439.34Zm6.85-19a12.31,12.31,0,0,1,11.15,0c3.07,1.78,3.06,4.67,0,6.43a12.29,12.29,0,0,1-11.14,0C48.1,425,48.11,422.13,51.19,420.37Z" style="fill:#fff;opacity:0.30000000000000004"></path><g style="opacity:0.2"><path d="M91.78,429.18l-27.44-4.33c.74-1.53.07-3.23-2-4.44a12.31,12.31,0,0,0-11.15,0,4.71,4.71,0,0,0-2.06,2.08l-10-1.58a20.06,20.06,0,0,1,5.31-4.25c.31-.18.65-.34,1-.51l45.14,7.12A9.88,9.88,0,0,1,91.78,429.18Z" style="fill:#fff"></path><path d="M37.78,433.28a9.79,9.79,0,0,1-.08-10.44l11.39,1.8a4.68,4.68,0,0,0,2.08,2.16,12.29,12.29,0,0,0,11.14,0l.15-.09,28.83,4.54a12.48,12.48,0,0,1-2.84,4.52l12.89,7.5Z" style="fill:#fff"></path></g><path d="M46,436.57c-4.16-2.42-6.53-5.55-6.52-8.61s2.41-6.17,6.58-8.56c4.79-2.74,11.21-4.24,18.09-4.21s13.29,1.56,18.05,4.34c4.16,2.42,6.53,5.56,6.52,8.61s-2.41,6.18-6.58,8.56c-4.79,2.74-11.21,4.24-18.09,4.21S50.71,439.35,46,436.57Zm.55-16.3c-3.85,2.2-6.06,5-6.07,7.7s2.18,5.51,6,7.74c4.62,2.69,10.85,4.18,17.56,4.2s12.95-1.42,17.58-4.07c3.86-2.21,6.07-5,6.08-7.7s-2.18-5.51-6-7.75c-4.62-2.68-10.85-4.18-17.56-4.2S51.14,417.61,46.5,420.27Z" style="fill:#6C63FF"></path><path d="M54,443v3.54a47.16,47.16,0,0,0,20.68-.08v-3.54A47.16,47.16,0,0,1,54,443Z" style="opacity:0.1"></path><polygon points="84.01 448.37 84 451.91 91.2 450.31 91.22 446.76 84.01 448.37" style="opacity:0.1"></polygon><polygon points="96.12 449.62 96.11 453.16 96.35 459.1 96.37 455.56 96.12 449.62" style="opacity:0.1"></polygon><polygon points="99.01 457.1 99 460.64 105.64 461.25 105.65 457.7 99.01 457.1" style="opacity:0.1"></polygon><rect x="122.24" y="461.39" width="3.54" height="15.25" transform="translate(-345.45 591.33) rotate(-89.79)" style="opacity:0.1"></rect><polygon points="137.12 464.14 137.1 467.68 131.63 470.81 131.64 467.27 134.04 465.9 134.03 467.43 135.36 466.67 135.36 465.12 137.12 464.14" style="opacity:0.15"></polygon><polygon points="135.36 465.12 134.04 465.9 134.03 467.43 135.36 466.67 135.36 465.12" style="fill:#6C63FF"></polygon><polygon points="135.36 465.12 134.04 465.9 134.03 467.43 135.36 466.67 135.36 465.12" style="fill:#fff;opacity:0.30000000000000004"></polygon><polygon points="135.36 465.12 135.36 466.67 85.45 437.61 86.78 436.84 135.36 465.12" style="fill:#6C63FF"></polygon><polygon points="86.78 436.84 86.78 438.38 85.45 437.61 86.78 436.84" style="opacity:0.15"></polygon></g></g><g id="freepik--Pen--inject-1"><g id="freepik--pen--inject-1"><path d="M449.94,386.86l-149.7,86.55-23.13,4.71a.71.71,0,0,1-.76-1l7.24-13.28,149.72-86.57C437.87,374.6,453.51,384.8,449.94,386.86Z" style="fill:#e0e0e0"></path><g id="freepik--pen--inject-1"><path d="M433.88,367.66a13.71,13.71,0,0,0,6.21,10.74,5,5,0,0,0,3.56.76,3,3,0,0,1-.67.52l1.49-.85a3.09,3.09,0,0,0,.92-.82,4.06,4.06,0,0,0,.51-.92c0-.1.07-.2.1-.3a.44.44,0,0,0,.05-.15,2.86,2.86,0,0,0,.07-.28,6.6,6.6,0,0,0,.17-1.54,13.73,13.73,0,0,0-6.2-10.74,5.6,5.6,0,0,0-2.78-.85h0a2.34,2.34,0,0,0-.38,0l-.36.06a1.41,1.41,0,0,0-.22.06l-.13,0-.25.1-.05,0-.24.12-1.3.74a2.62,2.62,0,0,1,.68-.24A4.91,4.91,0,0,0,433.88,367.66Z" style="fill:#6C63FF"></path><path d="M290.73,447.39l8.75,15.2,1.48-.85,142-82.06a3,3,0,0,0,.67-.52,5,5,0,0,0,1.15-3.49,13.68,13.68,0,0,0-6.21-10.74,5.57,5.57,0,0,0-2.77-.85,3.33,3.33,0,0,0-.78.09,2.62,2.62,0,0,0-.68.24l-.1,0,0,0h0Z" style="fill:#f0f0f0"></path><path d="M295.11,447.82c-3.42-2-6.2-.37-6.2,3.58a13.7,13.7,0,0,0,6.2,10.74c3.43,2,6.21.38,6.21-3.58A13.71,13.71,0,0,0,295.11,447.82Z" style="fill:#6C63FF"></path><path d="M281.78,457l.16-.18,7.91-8.7s0,0,0,0l.06-.07.14-.15.09-.09h0c1.13-1.08,2.93-1.18,4.95,0a13.71,13.71,0,0,1,6.21,10.74c0,2.3-.94,3.79-2.4,4.26h0l-.1,0a3,3,0,0,1-.45.1l-.09,0h0l-11.47,2.5a2.81,2.81,0,0,1-2-.44,7.82,7.82,0,0,1-3.55-6.13A2.91,2.91,0,0,1,281.78,457Z" style="fill:#e0e0e0"></path><path d="M397.5,392.22a.05.05,0,0,1,0,0l.2-.12a1.61,1.61,0,0,1,1.45.2,4.9,4.9,0,0,1,2.2,3.83,1.66,1.66,0,0,1-.51,1.33h0l-.26.16L292,460.35l-6.2-3.58Z" style="fill:#455a64"></path><path d="M300.76,455.3,292,460.35l-6.2-3.58,11.85-6.84A14.9,14.9,0,0,1,300.76,455.3Z" style="fill:#37474f"></path><path d="M278.67,461.17h0l7.18-7.9a1.9,1.9,0,0,1,.19-.21c.8-.8,2.08-.86,3.54,0a9.72,9.72,0,0,1,4.38,7.59c0,1.62-.65,2.68-1.67,3l-.07,0-.29.06L281.4,466h0a1.61,1.61,0,0,1-1.13-.24,4.43,4.43,0,0,1-2-3.46A1.54,1.54,0,0,1,278.67,461.17Z" style="fill:#6C63FF"></path><path d="M278.67,461.17h0l7.18-7.9a1.9,1.9,0,0,1,.19-.21c.8-.8,2.08-.86,3.54,0a9.72,9.72,0,0,1,4.38,7.59c0,1.62-.65,2.68-1.67,3l-.07,0-.29.06L281.4,466h0a1.61,1.61,0,0,1-1.13-.24,4.43,4.43,0,0,1-2-3.46A1.54,1.54,0,0,1,278.67,461.17Z" style="opacity:0.1"></path><path d="M278.27,462.31a4.41,4.41,0,0,0,2,3.46,1.59,1.59,0,0,0,1.12.24h0l5.32-1.17c.83-.17,1.38-1,1.38-2.23a7.09,7.09,0,0,0-3.18-5.53,2.07,2.07,0,0,0-2.56,0l-.14.16-3.56,3.91h0A1.54,1.54,0,0,0,278.27,462.31Z" style="fill:#6C63FF"></path><path d="M280.26,461.16c-1.1-.64-2-.12-2,1.15a4.43,4.43,0,0,0,2,3.46c1.1.63,2,.12,2-1.15A4.42,4.42,0,0,0,280.26,461.16Z" style="opacity:0.1"></path><path d="M421,378.67a1.53,1.53,0,0,1,1.56.15,4.85,4.85,0,0,1,2.19,3.8,1.53,1.53,0,0,1-.65,1.43h0l-23.19,13.39a1.66,1.66,0,0,0,.51-1.33,4.9,4.9,0,0,0-2.2-3.83,1.61,1.61,0,0,0-1.45-.2Z" style="fill:#fafafa"></path><path d="M420.33,380.09a4.86,4.86,0,0,0,2.2,3.8,1.34,1.34,0,0,0,2.19-1.27,4.85,4.85,0,0,0-2.19-3.8,1.34,1.34,0,0,0-2.2,1.27Z" style="fill:#f5f5f5"></path><path d="M425.24,370.7h0l.07,0,.1,0,9.15-5.28.21-.12.05,0h0a4,4,0,0,1,3.78.47,12.33,12.33,0,0,1,5.59,9.67,3.91,3.91,0,0,1-1.66,3.62h0l-9.26,5.34-.05,0,0,0h0a4,4,0,0,1-3.87-.43,12.35,12.35,0,0,1-5.58-9.67A4,4,0,0,1,425.24,370.7Z" style="fill:#6C63FF"></path><path d="M425.24,370.7h0l.07,0,.1,0,9.15-5.28.21-.12.05,0h0a4,4,0,0,1,3.78.47,12.33,12.33,0,0,1,5.59,9.67,3.91,3.91,0,0,1-1.66,3.62h0l-9.26,5.34-.05,0,0,0h0a4,4,0,0,1-3.87-.43,12.35,12.35,0,0,1-5.58-9.67A4,4,0,0,1,425.24,370.7Z" style="opacity:0.05"></path><path d="M429.29,371c-3.08-1.78-5.58-.34-5.58,3.22a12.35,12.35,0,0,0,5.58,9.67c3.09,1.78,5.59.34,5.59-3.22A12.33,12.33,0,0,0,429.29,371Z" style="opacity:0.1"></path><path d="M275.73,464.5h0l3.79-2.28h0a.69.69,0,0,1,.74,0,2.25,2.25,0,0,1,1,1.77.74.74,0,0,1-.29.67h0L277.21,467h0a1.45,1.45,0,0,1-1.48-2.5Z" style="fill:#455a64"></path><path d="M275.51,464.67h0l.2-.16h0a.81.81,0,0,1,.66.12,2.26,2.26,0,0,1,1,1.77.71.71,0,0,1-.29.65l-.08,0-.07,0a1.22,1.22,0,0,1-.47.08,1.46,1.46,0,0,1-1.45-1.46A1.42,1.42,0,0,1,275.51,464.67Z" style="fill:#263238"></path></g></g></g></svg>